<svg width="18" height="20" viewBox="0 0 18 20" fill="none" xmlns="http://www.w3.org/2000/svg">
<path d="M1 7.31665C1 4.48822 1 3.07401 1.87868 2.19533C2.75736 1.31665 4.17157 1.31665 7 1.31665H11C13.8284 1.31665 15.2426 1.31665 16.1213 2.19533C17 3.07401 17 4.48822 17 7.31665V14.1443C17 16.8275 17 18.1692 16.1557 18.5795C15.3114 18.9899 14.2565 18.161 12.1465 16.5032L11.4713 15.9727C10.2849 15.0405 9.69173 14.5744 9 14.5744C8.30827 14.5744 7.71509 15.0405 6.52871 15.9727L5.85346 16.5032C3.74355 18.161 2.68859 18.9899 1.84429 18.5795C1 18.1692 1 16.8275 1 14.1443V7.31665Z" fill="#222222" stroke="#222222" stroke-width="2"/>
</svg>
