<svg width="100" height="100" viewBox="0 0 100 100" fill="none" xmlns="http://www.w3.org/2000/svg">
<path fill-rule="evenodd" clip-rule="evenodd" d="M98 51.1369C98 47.5915 97.6818 44.1824 97.0909 40.9097H50V60.2506H76.9091C75.75 66.5006 72.2273 71.796 66.9318 75.3415V87.8869H83.0909C92.5454 79.1824 98 66.3642 98 51.1369Z" fill="#4285F4"/>
<path fill-rule="evenodd" clip-rule="evenodd" d="M49.9997 100C63.4997 100 74.8179 95.5232 83.0906 87.8869L66.9315 75.3414C62.4542 78.3414 56.727 80.1141 49.9997 80.1141C36.977 80.1141 25.9542 71.3187 22.0224 59.5005H5.31787V72.455C13.5451 88.7959 30.4542 100 49.9997 100Z" fill="#34A853"/>
<path fill-rule="evenodd" clip-rule="evenodd" d="M22.0227 59.5C21.0227 56.5 20.4545 53.2954 20.4545 50C20.4545 46.7045 21.0227 43.5 22.0227 40.5V27.5454H5.31818C1.93182 34.2954 0 41.9318 0 50C0 58.0681 1.93182 65.7045 5.31818 72.4545L22.0227 59.5Z" fill="#FBBC05"/>
<path fill-rule="evenodd" clip-rule="evenodd" d="M49.9997 19.8864C57.3406 19.8864 63.9315 22.4091 69.1133 27.3636L83.4542 13.0227C74.7952 4.95455 63.477 0 49.9997 0C30.4542 0 13.5451 11.2045 5.31787 27.5455L22.0224 40.5C25.9542 28.6818 36.977 19.8864 49.9997 19.8864Z" fill="#EA4335"/>
</svg>
