<?xml version="1.0" encoding="UTF-8"?>
<svg version="1.1" xmlns="http://www.w3.org/2000/svg" width="1024" height="1024">
<path d="M0 0 C1.07636719 0.46792969 2.15273438 0.93585938 3.26171875 1.41796875 C14.36891949 6.62991216 24.6009908 13.46252423 34.92919922 20.04345703 C37.82496138 21.88847515 40.72593353 23.72494844 43.62890625 25.55859375 C54.34790226 32.34103512 64.99706818 39.22542572 75.59008789 46.203125 C76.50137451 46.80125 77.41266113 47.399375 78.3515625 48.015625 C79.55546631 48.80888184 79.55546631 48.80888184 80.78369141 49.61816406 C82.81311537 50.88348017 84.84366636 51.97033203 87 53 C89 54 89 54 91.078125 55.703125 C94.81582101 58.64131384 98.75427923 61.17875467 102.75 63.75 C104.04490356 64.58785034 104.04490356 64.58785034 105.3659668 65.44262695 C113.57315416 70.74511726 121.81297677 75.99676423 130.04956055 81.25341797 C136.36480721 85.29083432 142.63111631 89.38860636 148.84667969 93.57739258 C152.86274502 96.27291547 156.94284538 98.84136646 161.0625 101.375 C169.42271115 106.5293587 177.58055133 111.98829503 185.75 117.4375 C186.42346466 117.88623474 187.09692932 118.33496948 187.790802 118.79730225 C189.7314098 120.09111964 191.67069219 121.38689409 193.609375 122.68359375 C194.19418137 123.07386246 194.77898773 123.46413116 195.3815155 123.8662262 C201.98446332 128.29343439 201.98446332 128.29343439 204 130 C204 130.66 204 131.32 204 132 C204.56332031 132.22429687 205.12664063 132.44859375 205.70703125 132.6796875 C218.7180632 140.17155939 226.75103858 159.53226691 230.59301758 173.2409668 C232.25365567 179.53675902 233.12435579 185.43673232 233.14044189 191.94709778 C233.14489858 192.95972554 233.14489858 192.95972554 233.1494453 193.99281043 C233.1580779 196.24237143 233.15963595 198.49187886 233.16113281 200.74145508 C233.16576513 202.3600577 233.17079035 203.97865924 233.17617798 205.59725952 C233.18927094 209.9884011 233.19574179 214.3795274 233.20018864 218.77068543 C233.2031266 221.52102692 233.20723293 224.27136431 233.21169281 227.02170372 C233.22536446 235.64638588 233.23503068 244.27105858 233.2388947 252.89575082 C233.24336374 262.81391968 233.26085922 272.73194993 233.2898953 282.65007669 C233.3116134 290.33872528 233.32160448 298.02733519 233.32293582 305.71601409 C233.32397736 310.29681754 233.32974387 314.87749065 233.34775543 319.45826149 C233.36441041 323.7782055 233.36630853 328.09792368 233.35761642 332.41788864 C233.35685505 333.98945286 233.3610673 335.5610301 233.37107468 337.13256264 C233.52128009 362.22559488 227.29764208 385.41292557 211 405 C210.54109375 405.59296875 210.0821875 406.1859375 209.609375 406.796875 C202.38592869 415.84693992 192.34957089 422.35209255 182.75 428.625 C181.71351318 429.30884766 180.67702637 429.99269531 179.60913086 430.69726562 C176.41034628 432.80474579 173.20575762 434.90314601 170 437 C168.06895252 438.26814102 166.13796106 439.53636732 164.20703125 440.8046875 C149.47598488 450.46013907 134.63110774 459.93747234 119.78466797 469.4140625 C112.6640199 473.96212394 105.59935934 478.58552239 98.57885742 483.28637695 C94.09294434 486.2852343 89.56966085 489.21998027 85.02319336 492.12646484 C78.84308132 496.08529732 72.70354126 500.1059346 66.5625 504.125 C65.43051108 504.86557484 64.29851234 505.60613467 63.16650391 506.34667969 C58.73664609 509.24492551 54.30717095 512.14375395 49.87890625 515.04443359 C44.14911143 518.79692763 38.41402273 522.54099685 32.66796875 526.26855469 C30.91661335 527.40514075 29.16656783 528.54374829 27.41796875 529.68457031 C12.2704074 539.5493313 -2.5613302 547.9530438 -20 553 C-21.21042969 553.35191406 -21.21042969 553.35191406 -22.4453125 553.7109375 C-47.65035562 560.1284577 -75.67316638 553.31129357 -98 541 C-100.21499629 539.57712857 -102.39644723 538.11164674 -104.57446289 536.6328125 C-108.8643599 533.74495833 -113.25371012 531.01239366 -117.625 528.25 C-124.02625874 524.19279664 -130.40301013 520.11106988 -136.6875 515.875 C-141.97772813 512.30962625 -147.34057602 508.88153064 -152.75 505.5 C-161.36482765 500.10849205 -169.81449227 494.48305863 -178.25415039 488.82373047 C-186.28153216 483.44373637 -194.36735749 478.17665157 -202.5625 473.0546875 C-207.87658422 469.72873969 -213.10137587 466.29033704 -218.29980469 462.78710938 C-223.30666252 459.42777298 -228.39280369 456.20426605 -233.5 453 C-239.94623147 448.95491403 -246.32658801 444.83227881 -252.63964844 440.58251953 C-256.80402012 437.78257206 -261.01409845 435.06520562 -265.25 432.375 C-271.34706262 428.48683264 -277.23806009 424.36979336 -283 420 C-283.58265625 419.56171875 -284.1653125 419.1234375 -284.765625 418.671875 C-295.07364677 410.53396308 -302.84231823 398.76230221 -308.7734375 387.21484375 C-309.93000332 384.88598488 -309.93000332 384.88598488 -312 383 C-311.67 382.01 -311.34 381.02 -311 380 C-312.32 379.67 -313.64 379.34 -315 379 C-314.01 379 -313.02 379 -312 379 C-312.34444881 376.52733235 -312.34444881 376.52733235 -313 374 C-313.66 373.67 -314.32 373.34 -315 373 C-315.90288122 369.39136009 -316.18843396 365.6499099 -316.60449219 361.95751953 C-316.8009691 360.2163193 -316.8009691 360.2163193 -317.00141525 358.43994331 C-318.42273885 344.6052561 -318.40512888 330.77284762 -318.33711338 316.88404226 C-318.32170448 313.10508744 -318.32324281 309.32613062 -318.32244873 305.54714966 C-318.31879299 299.21220931 -318.30401717 292.8773797 -318.28125 286.54248047 C-318.25236312 278.4900518 -318.2420152 270.43771164 -318.2375679 262.38523674 C-318.23354327 255.35622454 -318.22105619 248.3272304 -318.20722103 241.2982316 C-318.20318747 239.08890608 -318.20022959 236.87958113 -318.19742584 234.67025375 C-318.17696514 220.9240569 -318.10431693 207.1866471 -317.54589844 193.44970703 C-317.48743177 192.00806844 -317.48743177 192.00806844 -317.42778397 190.53730583 C-316.66551201 173.98428639 -316.66551201 173.98428639 -313 167 C-312.45125018 165.77340333 -311.90902367 164.54388018 -311.37109375 163.3125 C-299.66357381 136.96828214 -279.80801602 122.14155067 -255.90234375 107.4296875 C-250.12602012 103.86064711 -244.507622 100.05535342 -238.87646484 96.26318359 C-235.67218574 94.10615262 -232.46151802 91.95873198 -229.25 89.8125 C-228.68466553 89.43287109 -228.11933105 89.05324219 -227.53686523 88.66210938 C-224.00015743 86.29722974 -220.42875893 83.99364501 -216.8359375 81.71484375 C-210.64328125 77.78566266 -204.50789912 73.77160315 -198.375 69.75 C-196.06807584 68.23902159 -193.76068947 66.72875032 -191.453125 65.21875 C-190.8909024 64.85082336 -190.32867981 64.48289673 -189.74942017 64.1038208 C-185.21673443 61.13888673 -180.67465332 58.18881366 -176.125 55.25 C-175.46604736 54.82420654 -174.80709473 54.39841309 -174.12817383 53.9597168 C-172.79136561 53.09599079 -171.45453278 52.23230286 -170.11767578 51.36865234 C-166.09701152 48.7700999 -162.07869145 46.16796008 -158.0625 43.5625 C-157.23331055 43.0250415 -156.40412109 42.48758301 -155.54980469 41.93383789 C-151.27776767 39.15751309 -147.02579668 36.35526121 -142.80078125 33.5078125 C-141.97247803 32.9502124 -141.1441748 32.3926123 -140.29077148 31.81811523 C-138.71060947 30.75152584 -137.13317474 29.68088191 -135.55883789 28.60571289 C-134.85621826 28.13125732 -134.15359863 27.65680176 -133.4296875 27.16796875 C-132.81335449 26.74797607 -132.19702148 26.3279834 -131.56201172 25.89526367 C-130 25 -130 25 -128 25 C-128 24.34 -128 23.68 -128 23 C-126.824375 22.43667969 -125.64875 21.87335938 -124.4375 21.29296875 C-120.38101451 19.26383486 -116.71660382 16.89876228 -113 14.3125 C-78.82135157 -8.79152659 -38.89162011 -17.20988067 0 0 Z M-48 33 C-49.4780676 33.10096856 -50.95755117 33.18195638 -52.4375 33.25 C-66.62392421 34.62552883 -80.26144107 44.13048695 -91.578125 52.28515625 C-94.93142377 54.65950812 -98.39418175 56.84353009 -101.87109375 59.03125 C-110.2127967 64.27996197 -118.50089142 69.60707811 -126.75 75 C-128.76822526 76.31771431 -130.78645455 77.63542247 -132.8046875 78.953125 C-134.33947754 79.95569336 -134.33947754 79.95569336 -135.90527344 80.97851562 C-148.0973158 88.94239309 -160.29058042 96.90405437 -172.52246094 104.80664062 C-181.38028196 110.53299345 -190.2089969 116.30405218 -199.04150391 122.06933594 C-202.85629765 124.55880524 -206.67232777 127.04637486 -210.48852539 129.53369141 C-212.37222778 130.76191683 -214.25552832 131.99075879 -216.13842773 133.22021484 C-220.77643564 136.24855422 -225.41721375 139.27234182 -230.06764221 142.28158569 C-232.38067061 143.77917502 -234.69148327 145.28016321 -237.00204468 146.78155518 C-238.62289496 147.83308726 -240.24657173 148.88025865 -241.87036133 149.92724609 C-259.85411489 160.88466177 -259.85411489 160.88466177 -271 178 C-272.05307178 187.07858724 -271.39539611 194.5139995 -266 202 C-259.41722653 208.84826439 -251.85568085 213.97214315 -243.8125 218.9375 C-241.73465354 220.23664564 -239.65784311 221.53744964 -237.58203125 222.83984375 C-236.51291504 223.51023682 -235.44379883 224.18062988 -234.34228516 224.87133789 C-229.55688501 227.91910296 -224.84845553 231.07699546 -220.13549805 234.23510742 C-215.56329005 237.29744312 -210.97026847 240.32788338 -206.375 243.35546875 C-205.5388063 243.90640198 -204.70261261 244.45733521 -203.84107971 245.02496338 C-201.22767177 246.74624262 -198.61386738 248.46691854 -196 250.1875 C-194.64820648 251.07766312 -194.64820648 251.07766312 -193.269104 251.98580933 C-182.81887169 258.8670226 -172.36231528 265.73791328 -161.875 272.5625 C-154.30602854 277.48814542 -146.76899218 282.456785 -139.26611328 287.48242188 C-121.86716984 299.134203 -104.42097772 310.70646795 -86.86914062 322.12695312 C-84.24457246 323.84033697 -81.62844125 325.56564467 -79.015625 327.296875 C-63.18107421 337.96443015 -63.18107421 337.96443015 -45 343 C-44.28585937 343.0825 -43.57171875 343.165 -42.8359375 343.25 C-29.09535892 344.04945184 -17.88083816 336.3030493 -7 329 C-5.0693915 327.71687435 -3.13837404 326.43436389 -1.20703125 325.15234375 C2.10638723 322.94898394 5.41803401 320.74315137 8.72412109 318.52880859 C19.97192802 310.9963459 31.28560532 303.56552849 42.60668945 296.14379883 C44.01389738 295.22096155 45.42104347 294.29802999 46.828125 293.375 C47.50999374 292.92771042 48.19186249 292.48042084 48.89439392 292.01957703 C54.27065535 288.48855498 59.62654878 284.92759105 64.97003174 281.34716797 C68.70079588 278.85076351 72.46227923 276.40901074 76.25 274 C82.75710582 269.85148202 89.16622807 265.55891625 95.578125 261.26553345 C103.99678701 255.62911913 112.41781751 250.01934881 121.04614258 244.70654297 C127.11301099 240.96132403 133.08922293 237.07987626 139.0625 233.1875 C140.03928711 232.55239502 141.01607422 231.91729004 142.02246094 231.26293945 C146.04602584 228.63538328 150.04560554 226.00105957 153.93359375 223.17578125 C156.31176929 221.48833695 158.41819485 220.27314949 161 219 C176.9606101 208.88937508 176.9606101 208.88937508 186 193 C187.08282896 182.97152721 186.01959786 175.44033482 179.6875 167.5625 C174.76786993 162.30887669 168.83876267 158.76339333 162.73876953 155.06884766 C160.17336523 153.49185523 157.68275217 151.81023908 155.1875 150.125 C149.03618737 146.00516446 142.82120529 141.98810184 136.6015625 137.97265625 C131.85359325 134.9073185 127.11325207 131.83033205 122.375 128.75 C121.54677734 128.21157471 120.71855469 127.67314941 119.86523438 127.1184082 C112.42511749 122.27963653 104.99108483 117.43154574 97.55908203 112.58032227 C93.05961619 109.64403876 88.55813303 106.71110927 84.046875 103.79296875 C74.9907823 97.93189941 65.98652508 91.99933541 57.02233887 85.99884033 C46.78970884 79.14948329 36.49064528 72.44815077 26 66 C20.74487802 62.72058884 15.54020156 59.4151183 10.5 55.8125 C-16.30350966 35.81227811 -16.30350966 35.81227811 -48 33 Z M-273.72673035 255.46815491 C-275.54913486 259.0919324 -275.40988402 262.54422407 -275.37231445 266.50952148 C-275.37596512 267.36704514 -275.37961578 268.22456879 -275.38337708 269.108078 C-275.39148764 271.94595098 -275.37785815 274.78325337 -275.36328125 277.62109375 C-275.36276228 279.60205586 -275.36328142 281.5830185 -275.36479187 283.5639801 C-275.3647021 287.72266298 -275.35426996 291.88115224 -275.33618164 296.03979492 C-275.31362757 301.3385845 -275.31292575 306.63708791 -275.31969929 311.93591213 C-275.32306401 316.03262314 -275.3163602 320.12927045 -275.30657005 324.22596931 C-275.30275071 326.17735522 -275.30155611 328.12874826 -275.3031559 330.08013725 C-275.30560946 347.99866734 -275.18737974 366.57543543 -261.77978516 380.31787109 C-254.62650239 387.07865549 -246.4702261 392.49647617 -238.22271729 397.80960083 C-235.67439747 399.45136595 -233.13373411 401.10481642 -230.59262085 402.75770569 C-229.29188948 403.60374132 -227.99080316 404.44923148 -226.68936157 405.29417419 C-220.46885766 409.33538592 -214.29189204 413.4398871 -208.125 417.5625 C-207.21927246 418.16771484 -206.31354492 418.77292969 -205.38037109 419.39648438 C-203.57211142 420.60527917 -201.76409196 421.81443338 -199.95629883 423.02392578 C-196.58368013 425.27828004 -193.20797861 427.52797894 -189.83203125 429.77734375 C-185.19494341 432.86711977 -180.56111242 435.96167391 -175.93157959 439.0627594 C-173.17136112 440.91136547 -170.40983185 442.75800836 -167.64819336 444.60449219 C-166.25896759 445.53400342 -164.87029423 446.46434082 -163.48217773 447.39550781 C-155.2102505 452.94317091 -146.89368303 458.39096745 -138.41212463 463.61413574 C-133.28132496 466.78141518 -128.35373105 470.18030056 -123.41796875 473.64453125 C-117.37629832 477.84766661 -111.14784818 481.77255398 -104.94921875 485.73828125 C-103.19117102 486.87625604 -101.45357548 488.04567753 -99.71875 489.21875 C-92.92435464 493.86993943 -92.92435464 493.86993943 -85 495 C-82.77123969 493.84025887 -82.77123969 493.84025887 -81 492 C-80.39982556 489.95479353 -80.39982556 489.95479353 -80.4853363 487.64439392 C-80.46624962 486.3094136 -80.46624962 486.3094136 -80.44677734 484.94746399 C-80.45656616 483.48641487 -80.45656616 483.48641487 -80.46655273 481.99584961 C-80.45793716 480.96784241 -80.44932159 479.93983521 -80.44044495 478.88067627 C-80.4176841 475.47097813 -80.4245464 472.06209576 -80.43359375 468.65234375 C-80.42836003 466.28161881 -80.42208448 463.91089595 -80.41481018 461.54017639 C-80.40438527 456.56257357 -80.40899367 451.58525618 -80.42358398 446.60766602 C-80.44071279 440.2444676 -80.41735967 433.88217712 -80.38209438 427.51908016 C-80.36006706 422.61780365 -80.36157592 417.71674219 -80.3698597 412.81543159 C-80.37067748 410.47080049 -80.36384728 408.12615332 -80.34908867 405.78156853 C-80.33155971 402.49046139 -80.34625972 399.20095653 -80.36889648 395.90991211 C-80.35720428 394.95004898 -80.34551208 393.99018585 -80.33346558 393.00123596 C-80.44678485 384.85442377 -83.06521669 378.49001258 -88.3125 372.25 C-94.25205075 367.27735286 -100.52971085 362.90081957 -107.0625 358.75 C-108.57996446 357.77687913 -110.09688293 356.80290638 -111.61328125 355.828125 C-112.3604541 355.34794922 -113.10762695 354.86777344 -113.87744141 354.37304688 C-116.85595949 352.44629443 -119.80486266 350.47725384 -122.75 348.5 C-140.08431258 336.88499574 -157.60314316 325.53923112 -175.10546875 314.1796875 C-181.62300367 309.94856202 -188.12816179 305.69846098 -194.63500977 301.45092773 C-201.02327834 297.28297531 -207.42654422 293.13902833 -213.83813477 289.00708008 C-219.89002227 285.09528882 -225.88087986 281.09348743 -231.85083008 277.05786133 C-235.55030406 274.57100923 -239.27046855 272.25148261 -243.16455078 270.07446289 C-246.92903855 267.87075038 -250.5122087 265.37898003 -254.125 262.9375 C-257.07657702 260.94797231 -260.03392023 258.96783747 -263 257 C-263.92554688 256.38253906 -264.85109375 255.76507813 -265.8046875 255.12890625 C-268.82486361 253.57582636 -271.03365214 253.17836137 -273.72673035 255.46815491 Z " fill="#1C1C1D" transform="translate(555,213)"/>
<path d="M0 0 C3.34449869 4.23033888 6 8.48956392 6 14 C2.13263588 34.46480182 -19.54938072 52.86777638 -35 65 C-35.89074219 65.71929687 -36.78148437 66.43859375 -37.69921875 67.1796875 C-46.54753794 74.11519013 -56.12662382 79.66019294 -66 85 C-66.71317383 85.38607422 -67.42634766 85.77214844 -68.16113281 86.16992188 C-83.76790266 94.44925794 -101.68773335 100.12444904 -119.4375 100.25 C-120.16259766 100.270625 -120.88769531 100.29125 -121.63476562 100.3125 C-127.40931222 100.35400617 -132.13932544 99.39589677 -136.70703125 95.5703125 C-141.33871666 89.51475206 -142.99671275 84.56997025 -142 77 C-140.61829161 72.30053673 -139.06354579 69.7550896 -135.0234375 66.88671875 C-130.33394491 64.36872734 -125.39971306 63.84853291 -120.1875 63.125 C-93.58439299 58.91961063 -70.05816986 47.26145701 -51 28 C-46 23 -46 23 -44.41113281 21.50561523 C-39.22863172 16.5460891 -35.4193597 11.05474488 -31.5390625 5.05273438 C-27.59705093 -0.79249706 -23.95696101 -3.82133076 -17.0625 -5.875 C-10.49280451 -6.14315084 -5.05070774 -4.26504209 0 0 Z " fill="#1E1E1E" transform="translate(645,395)"/>
<path d="M0 0 C0.66 0.66 1.32 1.32 2 2 C3.88063683 2.94745285 5.77930605 3.85934987 7.6875 4.75 C16.90651391 9.33197107 22.69778739 14.4571727 27 24 C29.02957593 31.22290258 27.73338933 37.53322134 24.4375 44.125 C18.21482528 51.46456505 9.39594971 55.46321626 0 57 C-16.30959454 58.13441878 -32.13580206 55.52959026 -45.30859375 45.1875 C-51.37841036 39.66341002 -54.4554602 33.51190123 -55.4375 25.375 C-54.47864031 17.97808242 -51.79451196 11.86101495 -46 7 C-31.99686939 -1.78984389 -16.08617192 -2.77709157 0 0 Z " fill="#1C1C1D" transform="translate(472,392)"/>
<path d="M0 0 C4.79095027 5.15496855 6.88377126 10.32503509 7.65625 17.27734375 C7.30238913 24.79688731 3.56972148 30.84251465 -1.8671875 35.83984375 C-11.76207805 43.59420696 -23.63680949 44.16091087 -35.78125 43.33984375 C-46.31354213 41.62322411 -46.31354213 41.62322411 -51.01953125 39.17578125 C-51.60089844 38.89992188 -52.18226563 38.6240625 -52.78125 38.33984375 C-53.77125 38.83484375 -53.77125 38.83484375 -54.78125 39.33984375 C-54.78125 38.34984375 -54.78125 37.35984375 -54.78125 36.33984375 C-55.461875 36.15421875 -56.1425 35.96859375 -56.84375 35.77734375 C-63.23261705 32.6508769 -67.5340241 27.37094377 -70.12109375 20.796875 C-71.72415345 14.83045754 -71.75894061 8.80844216 -69.28125 3.08984375 C-64.67178396 -4.77525915 -57.40144147 -9.24068533 -48.78125 -11.66015625 C-32.0474795 -15.27442301 -12.66746377 -11.80629847 0 0 Z " fill="#1C1C1C" transform="translate(589.78125,335.66015625)"/>
<path d="M0 0 C0.33 0 0.66 0 1 0 C1 27.39 1 54.78 1 83 C0.67 83 0.34 83 0 83 C-1.94849098 67.80931578 -2.31179849 52.77288173 -2.26074219 37.46777344 C-2.24988127 33.58252853 -2.2607725 29.6977322 -2.2734375 25.8125 C-2.27211809 23.32551982 -2.26956025 20.83853992 -2.265625 18.3515625 C-2.26967346 17.19846588 -2.27372192 16.04536926 -2.27789307 14.85733032 C-2.24668936 9.53071768 -2.1914935 4.96513647 0 0 Z " fill="#101110" transform="translate(239,473)"/>
<path d="M0 0 C0.33 0 0.66 0 1 0 C1 22.44 1 44.88 1 68 C0.01 68.495 0.01 68.495 -1 69 C-1.85665223 57.7105474 -2.11005829 46.44300696 -2.125 35.125 C-2.12749756 34.45643982 -2.12999512 33.78787964 -2.13256836 33.09906006 C-2.1384758 31.17281993 -2.13579162 29.24655938 -2.1328125 27.3203125 C-2.13168457 26.19898926 -2.13055664 25.07766602 -2.12939453 23.92236328 C-2.01784902 21.40311846 -1.66169401 19.40862936 -1 17 C-0.86070644 15.63323368 -0.75634699 14.2625433 -0.68359375 12.890625 C-0.62075195 11.75947266 -0.62075195 11.75947266 -0.55664062 10.60546875 C-0.51732422 9.82816406 -0.47800781 9.05085938 -0.4375 8.25 C-0.39431641 7.45722656 -0.35113281 6.66445313 -0.30664062 5.84765625 C-0.20097009 3.89862185 -0.10002034 1.94933252 0 0 Z " fill="#090909" transform="translate(239,399)"/>
<path d="M0 0 C7.74536525 4.02237875 14.88648004 8.87171815 22.0625 13.8125 C23.22566501 14.60908393 24.38907489 15.40531045 25.55273438 16.20117188 C28.37090838 18.13062711 31.18657208 20.0636339 34 22 C33.01 22.66 32.02 23.32 31 24 C30.29875 23.46890625 29.5975 22.9378125 28.875 22.390625 C22.46646051 17.59096716 22.46646051 17.59096716 15.5 13.6875 C12 12 12 12 10.46875 10.45703125 C8.95294721 8.73785599 8.95294721 8.73785599 6 8 C6 7.34 6 6.68 6 6 C5.38125 5.690625 4.7625 5.38125 4.125 5.0625 C2.75 4.375 1.375 3.6875 0 3 C0 2.01 0 1.02 0 0 Z " fill="#272727" transform="translate(344,453)"/>
<path d="M0 0 C2.625 0.375 2.625 0.375 5 1 C5 1.66 5 2.32 5 3 C12.32901118 4.80110167 19.47407567 6.3622098 27 7 C27 7.33 27 7.66 27 8 C32.445 8.495 32.445 8.495 38 9 C38 9.33 38 9.66 38 10 C23.84044122 10.67785122 10.49583543 9.28923733 -2 2 C-1.34 1.34 -0.68 0.68 0 0 Z " fill="#363636" transform="translate(434,439)"/>
<path d="M0 0 C3.39179424 1.26291791 6.31213444 2.70677035 9.3203125 4.71484375 C10.10277344 5.23626953 10.88523437 5.75769531 11.69140625 6.29492188 C12.49449219 6.83697266 13.29757812 7.37902344 14.125 7.9375 C15.34123047 8.74477539 15.34123047 8.74477539 16.58203125 9.56835938 C19.99787044 11.85781854 23.1681271 13.99675054 26 17 C23.36 16.67 20.72 16.34 18 16 C17.67 15.01 17.34 14.02 17 13 C15.34302621 12.30959426 13.6744239 11.6469365 12 11 C9.1875 9 9.1875 9 7 7 C7 6.34 7 5.68 7 5 C4.69 4.67 2.38 4.34 0 4 C0 2.68 0 1.36 0 0 Z " fill="#2C2B2B" transform="translate(311,607)"/>
<path d="M0 0 C6.00221688 0.36922154 9.66600564 3.15209812 14.375 6.5625 C15.11105469 7.08263672 15.84710938 7.60277344 16.60546875 8.13867188 C18.41066928 9.41637875 20.20827458 10.70349908 22 12 C18.3046875 13.1484375 18.3046875 13.1484375 15.5625 11.8125 C13 10 13 10 10.625 8 C8.3788972 6.28868358 6.81475051 5.43722928 4.25 4.4375 C3.1775 3.963125 2.105 3.48875 1 3 C0.67 2.01 0.34 1.02 0 0 Z " fill="#2E2E2D" transform="translate(423,507)"/>
<path d="M0 0 C4.2404543 2.06225564 8.1875444 4.51113874 12.1875 7 C12.92419922 7.45117188 13.66089844 7.90234375 14.41992188 8.3671875 C15.12052734 8.80289063 15.82113281 9.23859375 16.54296875 9.6875 C17.18258545 10.08324219 17.82220215 10.47898437 18.48120117 10.88671875 C20 12 20 12 21 14 C19.68 14.33 18.36 14.66 17 15 C16.67 13.68 16.34 12.36 16 11 C14.88625 10.8453125 14.88625 10.8453125 13.75 10.6875 C10.8026481 9.95066203 9.21616926 9.05200858 7 7 C7 6.34 7 5.68 7 5 C6.21625 4.9175 5.4325 4.835 4.625 4.75 C2 4 2 4 0.6875 1.9375 C0.460625 1.298125 0.23375 0.65875 0 0 Z " fill="#30302F" transform="translate(411,673)"/>
<path d="M0 0 C0.33 0 0.66 0 1 0 C2.763834 8.59869077 3.82263988 17.21710949 3 26 C2.34 26.66 1.68 27.32 1 28 C0.27507668 18.64072209 -0.14256667 9.39355936 0 0 Z " fill="#2E2E2D" transform="translate(237,544)"/>
<path d="M0 0 C3.05366345 3.05366345 3.08331784 5.94279311 3.25 10.125 C3.1675 11.40375 3.085 12.6825 3 14 C2.01 14.66 1.02 15.32 0 16 C-1 15 -1 15 -1.09765625 12.8203125 C-1.08605469 11.93085938 -1.07445312 11.04140625 -1.0625 10.125 C-1.05347656 9.24070312 -1.04445313 8.35640625 -1.03515625 7.4453125 C-1.02355469 6.63835937 -1.01195312 5.83140625 -1 5 C-1 4.01 -1 3.02 -1 2 C-0.67 1.34 -0.34 0.68 0 0 Z " fill="#292928" transform="translate(594,343)"/>
<path d="M0 0 C4.53536249 1.58694328 8.31496003 3.9564827 12.3125 6.5625 C12.95767578 6.97435547 13.60285156 7.38621094 14.26757812 7.81054688 C15.86504831 8.84340855 17.43534098 9.91807746 19 11 C19 11.33 19 11.66 19 12 C14.5600353 12.41301997 12.49015367 11.36369883 8.9375 8.75 C8.10089844 8.14671875 7.26429688 7.5434375 6.40234375 6.921875 C4.09058945 5.07247156 2.00994106 3.17240742 0 1 C0 0.67 0 0.34 0 0 Z " fill="#2B2B2B" transform="translate(647,271)"/>
<path d="M0 0 C2.3125 2.125 2.3125 2.125 4 4 C3.01 4.495 3.01 4.495 2 5 C1.236875 4.505 0.47375 4.01 -0.3125 3.5 C-2.88937162 1.74121161 -2.88937162 1.74121161 -5.75 2.1875 C-8.17221913 2.76996879 -8.17221913 2.76996879 -9 5 C-9.99 4.67 -10.98 4.34 -12 4 C-10.98096927 1.22082528 -10.26943872 0.1602068 -7.6875 -1.375 C-4.29393506 -2.16420115 -3.01218635 -1.69918205 0 0 Z " fill="#302F2F" transform="translate(290,466)"/>
<path d="M0 0 C0.66 0.33 1.32 0.66 2 1 C1.3503125 2.0209375 1.3503125 2.0209375 0.6875 3.0625 C-1.17503916 6.3046978 -2.57729648 9.54486289 -4 13 C-4.99 13 -5.98 13 -7 13 C-7.33 13.66 -7.66 14.32 -8 15 C-7.68802549 8.76050981 -4.31188519 4.31188519 0 0 Z " fill="#2E2E2E" transform="translate(426,399)"/>
<path d="M0 0 C0 0.66 0 1.32 0 2 C6.27 2.33 12.54 2.66 19 3 C19 3.33 19 3.66 19 4 C9.30788428 4.36194623 0.30916361 4.15613945 -9 1 C-9.66 0.34 -10.32 -0.32 -11 -1 C-6.74938644 -2.41687119 -4.28148375 -1.19320039 0 0 Z " fill="#484947" transform="translate(550,375)"/>
<path d="M0 0 C0.66 0.33 1.32 0.66 2 1 C0.625 3.5 0.625 3.5 -1 6 C-1.66 6 -2.32 6 -3 6 C-3.433125 7.423125 -3.433125 7.423125 -3.875 8.875 C-5 12 -5 12 -7 14 C-7.46162427 16.43252661 -7.46162427 16.43252661 -7.625 19.125 C-7.73714844 20.49011719 -7.73714844 20.49011719 -7.8515625 21.8828125 C-7.90054688 22.58148438 -7.94953125 23.28015625 -8 24 C-8.33 24 -8.66 24 -9 24 C-9.53863186 15.8606741 -9.080992 9.73996238 -3.62109375 3.3984375 C-2.46219648 2.21642832 -1.23722514 1.09975568 0 0 Z " fill="#3C3B3B" transform="translate(528,330)"/>
<path d="M0 0 C3.42946293 1.61674681 6.56263052 3.57597677 9.75 5.625 C11.22726562 6.57246094 11.22726562 6.57246094 12.734375 7.5390625 C13.48203125 8.02117187 14.2296875 8.50328125 15 9 C14.01 9.66 13.02 10.32 12 11 C10.36515949 10.12225353 8.74239232 9.22199681 7.125 8.3125 C6.22007812 7.81363281 5.31515625 7.31476563 4.3828125 6.80078125 C1.65870365 4.74206948 0.95708362 3.22878211 0 0 Z " fill="#313130" transform="translate(615,250)"/>
<path d="M0 0 C4.21654356 1.48635116 7.62478605 3.61249159 11.3125 6.125 C12.38113281 6.84945313 13.44976563 7.57390625 14.55078125 8.3203125 C15.76314453 9.15175781 15.76314453 9.15175781 17 10 C14.58713125 10.87056734 13.44460058 11.18561853 11.03515625 10.1796875 C6.89232515 7.43967643 3.30731548 4.72072991 0 1 C0 0.67 0 0.34 0 0 Z " fill="#30302F" transform="translate(726,322)"/>
<path d="M0 0 C2 1 2 1 3 3 C1.948125 3.226875 0.89625 3.45375 -0.1875 3.6875 C-3.32437148 4.55675354 -4.11753076 5.11753076 -6.5625 7.5625 C-9.40681716 10.40681716 -11.06128406 10.72520586 -15 11 C-12.05740921 7.85519325 -8.99939466 5.50769874 -5.375 3.1875 C-4.41335938 2.56230469 -3.45171875 1.93710937 -2.4609375 1.29296875 C-1.64882813 0.86628906 -0.83671875 0.43960937 0 0 Z " fill="#2C2B2B" transform="translate(379,268)"/>
<path d="M0 0 C5.21979128 -0.1799928 9.07262981 0.02905192 14 2 C14 2.66 14 3.32 14 4 C15.98 4 17.96 4 20 4 C20.33 4.66 20.66 5.32 21 6 C13.64987044 5.42351925 6.98575424 3.28953836 0 1 C0 0.67 0 0.34 0 0 Z " fill="#373636" transform="translate(475,761)"/>
<path d="M0 0 C2.33670734 4.67341469 1.98279815 5.89730208 0.78125 10.671875 C-0.37574662 14.11972493 -2.04589042 16.93856165 -4 20 C-4.99266409 17.31980696 -5.066309 16.19419064 -4.125 13.4375 C-3.75375 12.633125 -3.3825 11.82875 -3 11 C-2.67 10.01 -2.34 9.02 -2 8 C-1.34 8.33 -0.68 8.66 0 9 C0 6.03 0 3.06 0 0 Z " fill="#363635" transform="translate(649,403)"/>
<path d="M0 0 C3.53969809 1.31169663 6.59937388 2.85998982 9.75 4.9375 C10.52859375 5.44152344 11.3071875 5.94554687 12.109375 6.46484375 C14 8 14 8 15 11 C11.46030191 9.68830337 8.40062612 8.14001018 5.25 6.0625 C4.47140625 5.55847656 3.6928125 5.05445313 2.890625 4.53515625 C1 3 1 3 0 0 Z " fill="#282727" transform="translate(414,548)"/>
<path d="M0 0 C-1.98 0.66 -3.96 1.32 -6 2 C-6 2.66 -6 3.32 -6 4 C-8.31 4.33 -10.62 4.66 -13 5 C-13.33 5.99 -13.66 6.98 -14 8 C-14.66 7.67 -15.32 7.34 -16 7 C-16 6.01 -16 5.02 -16 4 C-14.08959948 3.1319092 -12.17139263 2.28098217 -10.25 1.4375 C-9.18265625 0.96183594 -8.1153125 0.48617188 -7.015625 -0.00390625 C-4.01630163 -0.9946154 -2.86578759 -1.16161779 0 0 Z " fill="#363736" transform="translate(445,393)"/>
<path d="M0 0 C1.05833703 3.28300468 0.99812159 4.00553638 -0.1875 7.5 C-1.84704181 10.70463246 -3.29492345 12.66803746 -6 15 C-6.33 14.34 -6.66 13.68 -7 13 C-5.92325298 10.71741367 -4.80453884 8.5643566 -3.5625 6.375 C-3.22412109 5.76398438 -2.88574219 5.15296875 -2.53710938 4.5234375 C-1.69853808 3.011647 -0.85017423 1.50529601 0 0 Z " fill="#272727" transform="translate(251,362)"/>
<path d="M0 0 C0.99 0.33 1.98 0.66 3 1 C3 1.66 3 2.32 3 3 C1.9275 3.433125 0.855 3.86625 -0.25 4.3125 C-2.59294192 5.29776129 -4.17784529 6.14227623 -6.1875 7.75 C-6.785625 8.1625 -7.38375 8.575 -8 9 C-10.11328125 8.578125 -10.11328125 8.578125 -12 8 C-10.07053972 6.63292504 -8.13289523 5.28155046 -6.1875 3.9375 C-5.10855469 3.18339844 -4.02960937 2.42929687 -2.91796875 1.65234375 C-1.95503906 1.10707031 -0.99210938 0.56179688 0 0 Z " fill="#30302F" transform="translate(610,500)"/>
<path d="M0 0 C1.65 0 3.3 0 5 0 C1.85488067 2.57672427 -1.32163947 4.17392493 -5.0625 5.75 C-6.62677734 6.42289063 -6.62677734 6.42289063 -8.22265625 7.109375 C-11 8 -11 8 -14 7 C-13.34 7 -12.68 7 -12 7 C-12 6.34 -12 5.68 -12 5 C-4.71428571 1.57142857 -4.71428571 1.57142857 0 2 C0 1.34 0 0.68 0 0 Z " fill="#313130" transform="translate(556,755)"/>
<path d="M0 0 C0.33 0 0.66 0 1 0 C1.33 2.97 1.66 5.94 2 9 C2.66 9 3.32 9 4 9 C7.125 15.625 7.125 15.625 6 19 C5.18071114 17.75443908 4.36984814 16.50333365 3.5625 15.25 C3.11003906 14.55390625 2.65757812 13.8578125 2.19140625 13.140625 C-0.22142139 8.80544615 -0.09443665 4.91070583 0 0 Z " fill="#3D3C3C" transform="translate(417,414)"/>
<path d="M0 0 C9.59453303 5.0022779 9.59453303 5.0022779 13 9 C11.68 9.33 10.36 9.66 9 10 C9 9.34 9 8.68 9 8 C8.443125 7.731875 7.88625 7.46375 7.3125 7.1875 C4.77378296 5.88383449 2.34708441 4.62991973 0 3 C0 2.01 0 1.02 0 0 Z " fill="#313130" transform="translate(713,313)"/>
<path d="M0 0 C-1.6009131 1.15037471 -3.20585225 2.29514816 -4.8125 3.4375 C-6.15248047 4.39462891 -6.15248047 4.39462891 -7.51953125 5.37109375 C-10 7 -10 7 -13 8 C-13 7.01 -13 6.02 -13 5 C-10.91796875 3.359375 -10.91796875 3.359375 -8.1875 1.75 C-7.29417969 1.20859375 -6.40085937 0.6671875 -5.48046875 0.109375 C-3 -1 -3 -1 0 0 Z " fill="#2F2F2F" transform="translate(606,727)"/>
<path d="M0 0 C1.98283479 1.11852219 3.96117623 2.24501325 5.9375 3.375 C7.59072266 4.31472656 7.59072266 4.31472656 9.27734375 5.2734375 C12 7 12 7 13 9 C7.65612777 8.27129015 3.48006233 7.35007791 0 3 C0 2.01 0 1.02 0 0 Z " fill="#2D2C2B" transform="translate(473,538)"/>
<path d="M0 0 C4.98012761 1.50912958 8.24259942 4.55661849 12 8 C11.67 8.66 11.34 9.32 11 10 C10.113125 9.38125 9.22625 8.7625 8.3125 8.125 C5.19183479 5.96123963 5.19183479 5.96123963 2.1875 4.9375 C1.465625 4.628125 0.74375 4.31875 0 4 C-0.33 3.01 -0.66 2.02 -1 1 C-0.67 0.67 -0.34 0.34 0 0 Z " fill="#323131" transform="translate(481,398)"/>
<path d="M0 0 C0.33 0 0.66 0 1 0 C1 4.95 1 9.9 1 15 C0.01 15.495 0.01 15.495 -1 16 C-1.85330338 10.16524985 -2.48351814 5.55139349 0 0 Z " fill="#060707" transform="translate(239,473)"/>
<path d="M0 0 C4.67105792 1.55701931 8.08705685 4.08447373 12 7 C8.98968256 7.93423645 8.13349732 8.04449911 5 7 C3.10090078 5.10090078 1.55180586 3.18663553 0 1 C0 0.67 0 0.34 0 0 Z " fill="#313131" transform="translate(316,435)"/>
<path d="M0 0 C5.67026425 0.27001258 8.6681659 2.62116941 13 6 C11.68 6.33 10.36 6.66 9 7 C8.67 6.01 8.34 5.02 8 4 C6.88625 3.87625 5.7725 3.7525 4.625 3.625 C1 3 1 3 -1 1 C-0.67 0.67 -0.34 0.34 0 0 Z " fill="#2D2C2C" transform="translate(665,284)"/>
<path d="M0 0 C0.66 0.33 1.32 0.66 2 1 C1 3.4375 1 3.4375 -1 6 C-3.72714162 6.76381481 -6.14167178 6.85942648 -9 7 C-8.67 6.34 -8.34 5.68 -8 5 C-7.34 5 -6.68 5 -6 5 C-6 4.34 -6 3.68 -6 3 C-4.03533587 1.93224776 -2.03144641 0.93446535 0 0 Z " fill="#302F2F" transform="translate(433,233)"/>
<path d="M0 0 C4.10958767 1.45044271 7.43258745 3.51110752 11 6 C10.01 6.66 9.02 7.32 8 8 C6.68 7.34 5.36 6.68 4 6 C4 5.34 4 4.68 4 4 C2.68 3.67 1.36 3.34 0 3 C0 2.01 0 1.02 0 0 Z " fill="#2C2B2B" transform="translate(580,228)"/>
<path d="M0 0 C4.67105792 1.55701931 8.08705685 4.08447373 12 7 C10.02 7.99 10.02 7.99 8 9 C7 8 6 7 5 6 C4.113125 5.13375 3.22625 4.2675 2.3125 3.375 C0 1 0 1 0 0 Z " fill="#30302F" transform="translate(379,652)"/>
<path d="M0 0 C1.39412109 -0.02126953 1.39412109 -0.02126953 2.81640625 -0.04296875 C5.51238389 0.19408443 7.13157875 0.81479864 9.4375 2.1875 C8.60605469 2.17589844 7.77460937 2.16429687 6.91796875 2.15234375 C5.28794922 2.13880859 5.28794922 2.13880859 3.625 2.125 C2.00658203 2.10759766 2.00658203 2.10759766 0.35546875 2.08984375 C-2.62762169 2.05125234 -2.62762169 2.05125234 -5.5625 3.1875 C-8.25 2.75 -8.25 2.75 -10.5625 2.1875 C-10.5625 1.8575 -10.5625 1.5275 -10.5625 1.1875 C-6.99432513 0.37802294 -3.65768144 0.02543589 0 0 Z " fill="#494746" transform="translate(512.5625,243.8125)"/>
<path d="M0 0 C4.10811428 1.44992269 7.46855666 3.45407573 11 6 C11 6.33 11 6.66 11 7 C9.02 7 7.04 7 5 7 C4.67 6.01 4.34 5.02 4 4 C3.01 4 2.02 4 1 4 C0.67 2.68 0.34 1.36 0 0 Z " fill="#2D2D2C" transform="translate(591,235)"/>
<path d="M0 0 C-3.54039134 2.9156164 -7.1626772 5.50127818 -11 8 C-11.66 7.67 -12.32 7.34 -13 7 C-5.77659574 -0.48138298 -5.77659574 -0.48138298 0 0 Z " fill="#313131" transform="translate(730,646)"/>
<path d="M0 0 C-1.93356782 0.69848264 -3.87202298 1.38344814 -5.8125 2.0625 C-6.89144531 2.44535156 -7.97039063 2.82820313 -9.08203125 3.22265625 C-12 4 -12 4 -15 3 C-14.34 3 -13.68 3 -13 3 C-13 2.34 -13 1.68 -13 1 C-11.59054634 0.43983252 -10.1719969 -0.09748502 -8.75 -0.625 C-7.96109375 -0.92664063 -7.1721875 -1.22828125 -6.359375 -1.5390625 C-3.50082285 -2.09752136 -2.41040161 -1.53690745 0 0 Z " fill="#363635" transform="translate(564,487)"/>
<path d="M0 0 C3.94876098 0.56410871 6.75634176 1.65735794 10 4 C10.33 4.99 10.66 5.98 11 7 C9.68 7.33 8.36 7.66 7 8 C7 7.01 7 6.02 7 5 C6.21625 4.731875 5.4325 4.46375 4.625 4.1875 C2 3 2 3 0 0 Z " fill="#2F2F2E" transform="translate(528,367)"/>
<path d="M0 0 C0.66 0.33 1.32 0.66 2 1 C-0.57784846 3.64752004 -2.91648098 5.94432065 -6 8 C-7.32 7.67 -8.64 7.34 -10 7 C-6.7 4.69 -3.4 2.38 0 0 Z " fill="#323130" transform="translate(313,311)"/>
<path d="M0 0 C2.97 1.32 5.94 2.64 9 4 C9 4.66 9 5.32 9 6 C9.66 6.33 10.32 6.66 11 7 C6.14036821 6.39254603 2.2594482 4.27241033 -2 2 C-1.34 1.34 -0.68 0.68 0 0 Z " fill="#313130" transform="translate(464,754)"/>
<path d="M0 0 C5.28137429 0.51525603 8.57221156 2.25477117 13 5 C12.01 5.66 11.02 6.32 10 7 C9.67 6.01 9.34 5.02 9 4 C6.69 4 4.38 4 2 4 C2 3.01 2 2.02 2 1 C1.34 0.67 0.68 0.34 0 0 Z " fill="#313130" transform="translate(571,326)"/>
<path d="M0 0 C-1.09758507 0.84198307 -2.20335317 1.67330671 -3.3125 2.5 C-3.92738281 2.9640625 -4.54226563 3.428125 -5.17578125 3.90625 C-7 5 -7 5 -10 5 C-9.8125 3.125 -9.8125 3.125 -9 1 C-5.5637798 -0.95028714 -3.70512932 -1.09810869 0 0 Z " fill="#292828" transform="translate(620,718)"/>
<path d="M0 0 C4.51478398 0.53115106 7.34666857 2.36620292 11 5 C10.01 5.66 9.02 6.32 8 7 C6.66382648 6.02471263 5.3311249 5.04466681 4 4.0625 C3.2575 3.51722656 2.515 2.97195313 1.75 2.41015625 C1.1725 1.94480469 0.595 1.47945312 0 1 C0 0.67 0 0.34 0 0 Z " fill="#292828" transform="translate(345,631)"/>
<path d="M0 0 C1.48280196 0.78483659 2.9611498 1.57809334 4.4375 2.375 C5.67306641 3.03628906 5.67306641 3.03628906 6.93359375 3.7109375 C9 5 9 5 10 7 C9.01 7.33 8.02 7.66 7 8 C1.29061181 4.91693038 1.29061181 4.91693038 0.3203125 1.85546875 C0.21460938 1.24316406 0.10890625 0.63085938 0 0 Z " fill="#2E2E2D" transform="translate(379,476)"/>
<path d="M0 0 C0.99 0.33 1.98 0.66 3 1 C-0.3 3.31 -3.6 5.62 -7 8 C-7.66 7.67 -8.32 7.34 -9 7 C-6.75 4.5 -6.75 4.5 -4 2 C-2.68 2 -1.36 2 0 2 C0 1.34 0 0.68 0 0 Z " fill="#323232" transform="translate(652,694)"/>
<path d="M0 0 C2.475 0.495 2.475 0.495 5 1 C5.66 3.31 6.32 5.62 7 8 C6.34 8.66 5.68 9.32 5 10 C4.16121545 8.71186658 3.32913217 7.41936744 2.5 6.125 C2.0359375 5.40570312 1.571875 4.68640625 1.09375 3.9453125 C0 2 0 2 0 0 Z " fill="#302F2F" transform="translate(467,585)"/>
<path d="M0 0 C1.43931117 0.45261358 2.87638999 0.91232979 4.3125 1.375 C5.11300781 1.63023437 5.91351563 1.88546875 6.73828125 2.1484375 C9 3 9 3 12 5 C8.57318882 6.10867421 7.17896517 6.06883276 3.75 4.75 C1 3 1 3 0 0 Z " fill="#333332" transform="translate(491,550)"/>
<path d="M0 0 C4.7517398 0.43197635 6.92000054 1.32769295 10 5 C4.60158311 5.49076517 4.60158311 5.49076517 1.625 3.0625 C0 1 0 1 0 0 Z " fill="#292827" transform="translate(423,507)"/>
<path d="M0 0 C1.48280196 0.78483659 2.9611498 1.57809334 4.4375 2.375 C5.67306641 3.03628906 5.67306641 3.03628906 6.93359375 3.7109375 C9 5 9 5 10 7 C6.28111761 6.49287967 3.26545761 5.88391785 0 4 C0 2.68 0 1.36 0 0 Z " fill="#2B2C2B" transform="translate(391,484)"/>
<path d="M0 0 C1.48280196 0.78483659 2.9611498 1.57809334 4.4375 2.375 C5.67306641 3.03628906 5.67306641 3.03628906 6.93359375 3.7109375 C9 5 9 5 10 7 C8.68 7.33 7.36 7.66 6 8 C6 7.34 6 6.68 6 6 C5.38125 5.690625 4.7625 5.38125 4.125 5.0625 C2.75 4.375 1.375 3.6875 0 3 C0 2.01 0 1.02 0 0 Z " fill="#313130" transform="translate(344,453)"/>
<path d="M0 0 C0.66 0 1.32 0 2 0 C3.32421875 1.42578125 3.32421875 1.42578125 4.6875 3.3125 C5.14511719 3.92738281 5.60273438 4.54226563 6.07421875 5.17578125 C6.53248047 6.07876953 6.53248047 6.07876953 7 7 C6.67 7.99 6.34 8.98 6 10 C4.99106869 8.90398831 3.99311775 7.79786082 3 6.6875 C2.1646875 5.76517578 2.1646875 5.76517578 1.3125 4.82421875 C0 3 0 3 0 0 Z " fill="#2A292A" transform="translate(255,612)"/>
<path d="M0 0 C2.00293347 3.00440021 2.49271626 4.70993945 3.125 8.1875 C3.37636719 9.53908203 3.37636719 9.53908203 3.6328125 10.91796875 C3.75398437 11.60503906 3.87515625 12.29210937 4 13 C3.34 13 2.68 13 2 13 C0.24252386 8.49646738 -0.19294408 4.82360189 0 0 Z " fill="#2F2F2F" transform="translate(782,378)"/>
<path d="M0 0 C3.25543229 0.34879632 4.01873107 1.02133261 6.25 3.5625 C6.8275 4.366875 7.405 5.17125 8 6 C7.67 6.66 7.34 7.32 7 8 C3.70851757 6.86500606 3.0040131 6.00716624 1.25 2.875 C0.8375 1.92625 0.425 0.9775 0 0 Z " fill="#282827" transform="translate(586,335)"/>
<path d="M0 0 C1.32 0.33 2.64 0.66 4 1 C0.7 3.31 -2.6 5.62 -6 8 C-6.66 7.67 -7.32 7.34 -8 7 C-5.72058766 3.58088149 -5.59525083 3.89881271 -2 3 C-1.34 2.01 -0.68 1.02 0 0 Z " fill="#363535" transform="translate(393,308)"/>
<path d="M0 0 C3.93673644 1.31224548 6.22719294 2.91910327 9 6 C6.25 6.3125 6.25 6.3125 3 6 C0.625 3.5 0.625 3.5 -1 1 C-0.67 0.67 -0.34 0.34 0 0 Z " fill="#2D2D2D" transform="translate(686,296)"/>
<path d="M0 0 C3.93673644 1.31224548 6.22719294 2.91910327 9 6 C6.69 6 4.38 6 2 6 C2 5.01 2 4.02 2 3 C1.34 3 0.68 3 0 3 C0 2.01 0 1.02 0 0 Z " fill="#313130" transform="translate(302,601)"/>
<path d="M0 0 C0.33 0.66 0.66 1.32 1 2 C1.66 2 2.32 2 3 2 C3.66 3.98 4.32 5.96 5 8 C4.34 8.66 3.68 9.32 3 10 C1.4375 8.1875 1.4375 8.1875 0 6 C0.33 5.01 0.66 4.02 1 3 C-0.32 2.67 -1.64 2.34 -3 2 C-2.01 2 -1.02 2 0 2 C0 1.34 0 0.68 0 0 Z " fill="#383737" transform="translate(243,590)"/>
<path d="M0 0 C1.48280196 0.78483659 2.9611498 1.57809334 4.4375 2.375 C5.67306641 3.03628906 5.67306641 3.03628906 6.93359375 3.7109375 C9 5 9 5 10 7 C6.06380262 6.43768609 3.20807554 5.38314183 0 3 C0 2.01 0 1.02 0 0 Z " fill="#2F2F2D" transform="translate(447,521)"/>
<path d="M0 0 C0.66 1.32 1.32 2.64 2 4 C-0.31 5.32 -2.62 6.64 -5 8 C-3.62845496 5.04590299 -2.01136276 2.55991624 0 0 Z M3 0 C3.33 0.66 3.66 1.32 4 2 C3.34 1.67 2.68 1.34 2 1 C2.33 0.67 2.66 0.34 3 0 Z " fill="#2D2D2D" transform="translate(259,351)"/>
<path d="M0 0 C1.32 0 2.64 0 4 0 C4 0.66 4 1.32 4 2 C4.61875 2.2475 5.2375 2.495 5.875 2.75 C8.37480203 4.22047178 8.83316022 5.41403076 10 8 C8.7035649 7.23721377 7.41300852 6.46443041 6.125 5.6875 C5.40570312 5.25824219 4.68640625 4.82898438 3.9453125 4.38671875 C2 3 2 3 0 0 Z " fill="#333331" transform="translate(755,343)"/>
<path d="M0 0 C0.66 0.33 1.32 0.66 2 1 C-1.17320782 4.53586014 -3.16743695 6.58578031 -8 7 C-5.42215154 4.35247996 -3.08351902 2.05567935 0 0 Z " fill="#353534" transform="translate(284,330)"/>
<path d="M0 0 C0.99 0.33 1.98 0.66 3 1 C3 1.66 3 2.32 3 3 C-0.465 4.485 -0.465 4.485 -4 6 C-4.66 5.34 -5.32 4.68 -6 4 C-3.1875 1.9375 -3.1875 1.9375 0 0 Z " fill="#2F2F2F" transform="translate(691,447)"/>
<path d="M0 0 C4.21912747 0.4794463 6.79663178 1.16625119 10 4 C4.25 5.125 4.25 5.125 2 4 C2 3.01 2 2.02 2 1 C1.34 0.67 0.68 0.34 0 0 Z " fill="#373635" transform="translate(545,210)"/>
<path d="M0 0 C0.99 0.66 1.98 1.32 3 2 C2.50168276 5.68754757 1.89932357 7.60490662 -1 10 C-2.15837626 5.94568308 -1.83691257 3.78187881 0 0 Z " fill="#303030" transform="translate(740,406)"/>
<path d="M0 0 C0.66 0.33 1.32 0.66 2 1 C-3.14285714 7.57142857 -3.14285714 7.57142857 -7 9 C-5.44499019 5.18315774 -2.96404505 2.80804268 0 0 Z " fill="#383737" transform="translate(622,391)"/>
<path d="M0 0 C1.32 0.33 2.64 0.66 4 1 C1.36 2.98 -1.28 4.96 -4 7 C-4 4 -4 4 -2.25 1.75 C-1.5075 1.1725 -0.765 0.595 0 0 Z " fill="#2B2A29" transform="translate(294,373)"/>
<path d="M0 0 C0.66 0.33 1.32 0.66 2 1 C2 1.66 2 2.32 2 3 C-0.31 4.32 -2.62 5.64 -5 7 C-5.66 6.34 -6.32 5.68 -7 5 C-4.69 3.35 -2.38 1.7 0 0 Z " fill="#2F2F2F" transform="translate(342,292)"/>
<path d="M0 0 C4.31392226 0.4793247 6.16569547 1.7457985 9 5 C4.98525763 5 3.18024863 3.33218233 0 1 C0 0.67 0 0.34 0 0 Z " fill="#2F2E2D" transform="translate(336,674)"/>
<path d="M0 0 C3.93673644 1.31224548 6.22719294 2.91910327 9 6 C6.23723823 5.47731534 3.6739124 4.89130413 1 4 C0.3125 1.9375 0.3125 1.9375 0 0 Z " fill="#333332" transform="translate(391,660)"/>
<path d="M0 0 C3.93673644 1.31224548 6.22719294 2.91910327 9 6 C4.545 5.01 4.545 5.01 0 4 C0 2.68 0 1.36 0 0 Z " fill="#3A3939" transform="translate(311,607)"/>
<path d="M0 0 C0.99 0.33 1.98 0.66 3 1 C3 1.66 3 2.32 3 3 C-1.43076923 5.09230769 -1.43076923 5.09230769 -4.3125 4.625 C-4.869375 4.41875 -5.42625 4.2125 -6 4 C-3.1875 1.9375 -3.1875 1.9375 0 0 Z " fill="#302F2F" transform="translate(636,483)"/>
<path d="M0 0 C0.66 0.33 1.32 0.66 2 1 C1.3125 2.9375 1.3125 2.9375 0 5 C-2.5 5.875 -2.5 5.875 -5 6 C-5.66 5.34 -6.32 4.68 -7 4 C-1.7265625 0.77734375 -1.7265625 0.77734375 0 0 Z " fill="#2F302F" transform="translate(568,443)"/>
<path d="M0 0 C0.66 0.33 1.32 0.66 2 1 C-0.25 3.5625 -0.25 3.5625 -3 6 C-4.32 5.67 -5.64 5.34 -7 5 C-4.69 3.35 -2.38 1.7 0 0 Z " fill="#353636" transform="translate(577,437)"/>
<path d="M0 0 C2.0625 1.6875 2.0625 1.6875 4 4 C3.75 6.75 3.75 6.75 3 9 C2.34 8.67 1.68 8.34 1 8 C0.40644386 5.35139573 0.25790731 2.70802678 0 0 Z " fill="#2A2A2A" transform="translate(493,408)"/>
<path d="M0 0 C0.99 0.33 1.98 0.66 3 1 C2.67 1.99 2.34 2.98 2 4 C-1.0625 5.1875 -1.0625 5.1875 -4 6 C-3.67 5.01 -3.34 4.02 -3 3 C-2.34 3 -1.68 3 -1 3 C-0.67 2.01 -0.34 1.02 0 0 Z " fill="#292828" transform="translate(584,369)"/>
<path d="M0 0 C4.31392226 0.4793247 6.16569547 1.7457985 9 5 C4.98525763 5 3.18024863 3.33218233 0 1 C0 0.67 0 0.34 0 0 Z " fill="#302F2F" transform="translate(620,304)"/>
<path d="M0 0 C0.66 0.33 1.32 0.66 2 1 C2 1.66 2 2.32 2 3 C-0.25 4.6875 -0.25 4.6875 -3 6 C-4.32 5.67 -5.64 5.34 -7 5 C-4.69 3.35 -2.38 1.7 0 0 Z " fill="#313130" transform="translate(422,240)"/>
<path d="M0 0 C0.66 0.33 1.32 0.66 2 1 C-0.25 3.5625 -0.25 3.5625 -3 6 C-4.32 5.67 -5.64 5.34 -7 5 C-4.69 3.35 -2.38 1.7 0 0 Z " fill="#2C2C2C" transform="translate(549,540)"/>
<path d="M0 0 C0.66 0.33 1.32 0.66 2 1 C-0.25 3.5625 -0.25 3.5625 -3 6 C-4.32 5.67 -5.64 5.34 -7 5 C-4.69 3.35 -2.38 1.7 0 0 Z " fill="#343434" transform="translate(570,526)"/>
<path d="M0 0 C0.66 0.33 1.32 0.66 2 1 C-0.25 3.5625 -0.25 3.5625 -3 6 C-4.32 5.67 -5.64 5.34 -7 5 C-4.69 3.35 -2.38 1.7 0 0 Z " fill="#333333" transform="translate(596,509)"/>
<path d="M0 0 C4.31392226 0.4793247 6.16569547 1.7457985 9 5 C4.98525763 5 3.18024863 3.33218233 0 1 C0 0.67 0 0.34 0 0 Z " fill="#2F2E2C" transform="translate(334,497)"/>
<path d="M0 0 C3 3 3 3 3.1875 6.1875 C3.0946875 7.5796875 3.0946875 7.5796875 3 9 C2.01 9 1.02 9 0 9 C0 6.03 0 3.06 0 0 Z " fill="#2B2B2A" transform="translate(237,464)"/>
<path d="M0 0 C6.875 3.75 6.875 3.75 8 6 C4.62537285 5.45276317 2.91765 4.9451 0 3 C0 2.01 0 1.02 0 0 Z " fill="#313131" transform="translate(294,420)"/>
<path d="M0 0 C1.32 0.33 2.64 0.66 4 1 C1.69 2.65 -0.62 4.3 -3 6 C-3.66 5.67 -4.32 5.34 -5 5 C-2.75 2.4375 -2.75 2.4375 0 0 Z " fill="#333232" transform="translate(303,367)"/>
<path d="M0 0 C-4.625 4 -4.625 4 -8 4 C-8.66 3.34 -9.32 2.68 -10 2 C-6.49223216 0.39644899 -3.85645121 -0.22036864 0 0 Z " fill="#343333" transform="translate(338,347)"/>
<path d="M0 0 C0.99 0.33 1.98 0.66 3 1 C0.75 3.0625 0.75 3.0625 -2 5 C-4.3125 4.75 -4.3125 4.75 -6 4 C-3.1875 1.9375 -3.1875 1.9375 0 0 Z " fill="#2E2D2D" transform="translate(374,321)"/>
<path d="M0 0 C-1.04874998 2.62187494 -1.64931313 3.79371361 -4.125 5.25 C-4.74375 5.4975 -5.3625 5.745 -6 6 C-6.66 5.34 -7.32 4.68 -8 4 C-2.25 0 -2.25 0 0 0 Z " fill="#323131" transform="translate(352,287)"/>
<path d="M0 0 C0.99 0.33 1.98 0.66 3 1 C0.69 2.65 -1.62 4.3 -4 6 C-4.66 5.67 -5.32 5.34 -6 5 C-2.25 1.125 -2.25 1.125 0 0 Z " fill="#313131" transform="translate(468,260)"/>
<path d="M0 0 C3.37462715 0.54723683 5.08235 1.0549 8 3 C8 3.66 8 4.32 8 5 C2.25 3.375 2.25 3.375 0 0 Z " fill="#2E2D2D" transform="translate(288,643)"/>
<path d="M0 0 C0.33 0.66 0.66 1.32 1 2 C0.22265625 3.7265625 0.22265625 3.7265625 -0.9375 5.625 C-1.618125 6.73875 -2.29875 7.8525 -3 9 C-3.89674777 6.48910624 -4.13172674 5.35464891 -3.1875 2.8125 C-2 1 -2 1 0 0 Z " fill="#313130" transform="translate(777,598)"/>
<path d="M0 0 C3.37503669 1.1858237 5.64722731 2.27573689 8 5 C6.68 5.33 5.36 5.66 4 6 C4 5.34 4 4.68 4 4 C3.01 3.67 2.02 3.34 1 3 C0.67 2.01 0.34 1.02 0 0 Z " fill="#343332" transform="translate(401,491)"/>
<path d="M0 0 C0.99 0.33 1.98 0.66 3 1 C2.67 1.99 2.34 2.98 2 4 C-1.0625 5.1875 -1.0625 5.1875 -4 6 C-3.0022242 3.00667261 -2.2477975 2.05233685 0 0 Z " fill="#2E2D2D" transform="translate(583,473)"/>
<path d="M0 0 C0.66 0.33 1.32 0.66 2 1 C-0.83430453 4.2542015 -2.68607774 5.5206753 -7 6 C-4.74259377 3.66475218 -2.7194239 1.81294927 0 0 Z " fill="#333332" transform="translate(651,473)"/>
<path d="M0 0 C3.68754757 0.49831724 5.60490662 1.10067643 8 4 C6.68 4.33 5.36 4.66 4 5 C4 4.34 4 3.68 4 3 C2.35 2.67 0.7 2.34 -1 2 C-0.67 1.34 -0.34 0.68 0 0 Z " fill="#282828" transform="translate(334,448)"/>
<path d="M0 0 C3.37503669 1.1858237 5.64722731 2.27573689 8 5 C7.67 5.66 7.34 6.32 7 7 C1.125 3.375 1.125 3.375 0 0 Z " fill="#3E3D3C" transform="translate(639,392)"/>
<path d="M0 0 C3.37503669 1.1858237 5.64722731 2.27573689 8 5 C5.69 4.67 3.38 4.34 1 4 C0.67 2.68 0.34 1.36 0 0 Z " fill="#302F2F" transform="translate(704,308)"/>
<path d="M0 0 C0.66 0.33 1.32 0.66 2 1 C0.875 2.9375 0.875 2.9375 -1 5 C-4.1875 5.75 -4.1875 5.75 -7 6 C-4.74259377 3.66475218 -2.7194239 1.81294927 0 0 Z " fill="#3E3D3D" transform="translate(333,298)"/>
<path d="M0 0 C2 1 2 1 3 3 C-1.95 4.485 -1.95 4.485 -7 6 C-4.74259377 3.66475218 -2.7194239 1.81294927 0 0 Z " fill="#393938" transform="translate(379,268)"/>
<path d="M0 0 C3.37503669 1.1858237 5.64722731 2.27573689 8 5 C7.01 5.33 6.02 5.66 5 6 C3.31237149 4.3545622 1.6459651 2.68711423 0 1 C0 0.67 0 0.34 0 0 Z " fill="#333232" transform="translate(605,244)"/>
<path d="M0 0 C3.77545388 1.09068668 6.47043472 1.9083091 9 5 C5.26512223 4.5020163 3.18762365 4.12508244 0 2 C0 1.34 0 0.68 0 0 Z " fill="#2D2D2B" transform="translate(563,218)"/>
<path d="M0 0 C-7.42857143 2.42857143 -7.42857143 2.42857143 -11 1 C-10.01 1 -9.02 1 -8 1 C-8 0.34 -8 -0.32 -8 -1 C-4.59745511 -2.2151946 -3.06748874 -1.86240388 0 0 Z " fill="#393838" transform="translate(542,764)"/>
<path d="M0 0 C3.11198065 1.49836105 6.0534615 3.19933758 9 5 C7 6 7 6 4.5 5.3125 C1.70348499 3.84432962 1.06588569 2.90696099 0 0 Z " fill="#3D3D3C" transform="translate(411,673)"/>
<path d="M0 0 C2.46800047 1.15173355 4.04783565 2.04783565 6 4 C5.67 4.99 5.34 5.98 5 7 C2.5 5.1875 2.5 5.1875 0 3 C0 2.01 0 1.02 0 0 Z " fill="#272626" transform="translate(266,625)"/>
<path d="M0 0 C0.33 0.66 0.66 1.32 1 2 C0.0625 4.625 0.0625 4.625 -1 7 C-1.33 6.34 -1.66 5.68 -2 5 C-2.66 5 -3.32 5 -4 5 C-3.6875 3.0625 -3.6875 3.0625 -3 1 C-2.01 0.67 -1.02 0.34 0 0 Z " fill="#2C2C2C" transform="translate(780,591)"/>
<path d="M0 0 C0.33 0.66 0.66 1.32 1 2 C1.66 2 2.32 2 3 2 C4.0625 3.8125 4.0625 3.8125 5 6 C4.67 6.99 4.34 7.98 4 9 C0 3.375 0 3.375 0 0 Z " fill="#323131" transform="translate(504,481)"/>
<path d="M0 0 C1.32 0.33 2.64 0.66 4 1 C1.03 3.475 1.03 3.475 -2 6 C-2 3 -2 3 0 0 Z " fill="#2A2A2A" transform="translate(508,463)"/>
<path d="M0 0 C0.33 1.32 0.66 2.64 1 4 C-4.75 2.25 -4.75 2.25 -7 0 C-4.3333581 -1.33332095 -2.83319697 -0.67102033 0 0 Z " fill="#2A2A29" transform="translate(439,440)"/>
<path d="M0 0 C-1 3 -1 3 -4 5 C-6.1875 4.625 -6.1875 4.625 -8 4 C-2.25 0 -2.25 0 0 0 Z " fill="#313131" transform="translate(389,263)"/>
<path d="M0 0 C3.68754757 0.49831724 5.60490662 1.10067643 8 4 C7.01 4.33 6.02 4.66 5 5 C3.35 3.35 1.7 1.7 0 0 Z " fill="#2A2929" transform="translate(622,256)"/>
<path d="M0 0 C2.875 0.25 2.875 0.25 6 1 C7.375 3.0625 7.375 3.0625 8 5 C4.62496331 3.8141763 2.35277269 2.72426311 0 0 Z " fill="#353434" transform="translate(445,745)"/>
<path d="M0 0 C3.37503669 1.1858237 5.64722731 2.27573689 8 5 C1.25 3.25 1.25 3.25 -1 1 C-0.67 0.67 -0.34 0.34 0 0 Z " fill="#3A3A39" transform="translate(447,697)"/>
<path d="M0 0 C4.67692308 1.47692308 4.67692308 1.47692308 6.3125 4.125 C6.539375 4.74375 6.76625 5.3625 7 6 C2.32307692 4.52307692 2.32307692 4.52307692 0.6875 1.875 C0.460625 1.25625 0.23375 0.6375 0 0 Z " fill="#2A2A2A" transform="translate(316,660)"/>
<path d="M0 0 C2.875 0.25 2.875 0.25 6 1 C7.375 3.0625 7.375 3.0625 8 5 C4.62496331 3.8141763 2.35277269 2.72426311 0 0 Z " fill="#313131" transform="translate(300,651)"/>
<path d="M0 0 C3.68754757 0.49831724 5.60490662 1.10067643 8 4 C5.125 3.6875 5.125 3.6875 2 3 C1.34 2.01 0.68 1.02 0 0 Z " fill="#2B2A29" transform="translate(336,625)"/>
<path d="M0 0 C1.9375 0.625 1.9375 0.625 4 2 C4.75 5.125 4.75 5.125 5 8 C2.27573689 5.64722731 1.1858237 3.37503669 0 0 Z " fill="#2F2F2F" transform="translate(249,604)"/>
<path d="M0 0 C4.67692308 1.47692308 4.67692308 1.47692308 6.3125 4.125 C6.539375 4.74375 6.76625 5.3625 7 6 C2.32307692 4.52307692 2.32307692 4.52307692 0.6875 1.875 C0.460625 1.25625 0.23375 0.6375 0 0 Z " fill="#2D2D2D" transform="translate(414,548)"/>
<path d="M0 0 C0.66 0.33 1.32 0.66 2 1 C0.515 3.475 0.515 3.475 -1 6 C-1.99 5.67 -2.98 5.34 -4 5 C-2.25 1.125 -2.25 1.125 0 0 Z " fill="#262626" transform="translate(282,465)"/>
<path d="M0 0 C0.66 0.33 1.32 0.66 2 1 C0.6875 3.5 0.6875 3.5 -1 6 C-1.99 6 -2.98 6 -4 6 C-2.84826645 3.53199953 -1.95216435 1.95216435 0 0 Z " fill="#353536" transform="translate(426,399)"/>
<path d="M0 0 C4.67692308 1.47692308 4.67692308 1.47692308 6.3125 4.125 C6.539375 4.74375 6.76625 5.3625 7 6 C2.32307692 4.52307692 2.32307692 4.52307692 0.6875 1.875 C0.460625 1.25625 0.23375 0.6375 0 0 Z " fill="#2B2A2A" transform="translate(605,293)"/>
<path d="M0 0 C2.375 0.25 2.375 0.25 5 1 C6.3125 3.0625 6.3125 3.0625 7 5 C3.34683329 3.75023244 2.21934164 3.32901247 0 0 Z " fill="#363535" transform="translate(565,268)"/>
<path d="M0 0 C4.75 1.875 4.75 1.875 7 3 C7 3.66 7 4.32 7 5 C5.68 5.33 4.36 5.66 3 6 C2.67 4.68 2.34 3.36 2 2 C1.34 2 0.68 2 0 2 C0 1.34 0 0.68 0 0 Z " fill="#3D3C3B" transform="translate(637,264)"/>
<path d="M0 0 C2.9375 0.8125 2.9375 0.8125 6 2 C6.33 2.99 6.66 3.98 7 5 C1.25 3.25 1.25 3.25 -1 1 C-0.67 0.67 -0.34 0.34 0 0 Z " fill="#383736" transform="translate(534,248)"/>
<path d="M0 0 C2.475 0.99 2.475 0.99 5 2 C5 2.99 5 3.98 5 5 C4.01 5.495 4.01 5.495 3 6 C1.68 4.35 0.36 2.7 -1 1 C-0.67 0.67 -0.34 0.34 0 0 Z " fill="#313030" transform="translate(574,224)"/>
<path d="M0 0 C0.66 0.33 1.32 0.66 2 1 C1.34 2.32 0.68 3.64 0 5 C-1.65 4.67 -3.3 4.34 -5 4 C-3.35 2.68 -1.7 1.36 0 0 Z " fill="#2D2D2D" transform="translate(455,219)"/>
<path d="M0 0 C0.99 0 1.98 0 3 0 C3 0.66 3 1.32 3 2 C2.01 1.67 1.02 1.34 0 1 C0 0.67 0 0.34 0 0 Z " fill="#444242" transform="translate(481,765)"/>
<path d="M0 0 C0.33 0.99 0.66 1.98 1 3 C0.34 3 -0.32 3 -1 3 C-0.67 2.01 -0.34 1.02 0 0 Z " fill="#414040" transform="translate(467,704)"/>
<path d="M0 0 C0.33 0.99 0.66 1.98 1 3 C0.34 2.67 -0.32 2.34 -1 2 C-0.67 1.34 -0.34 0.68 0 0 Z " fill="#414141" transform="translate(433,739)"/>
<path d="M0 0 C1 4 1 4 1 4 Z " fill="#3E3E3D" transform="translate(472,690)"/>
<path d="M0 0 C4 1 4 1 4 1 Z " fill="#3F3F3F" transform="translate(500,552)"/>
<path d="M0 0 C4 1 4 1 4 1 Z " fill="#424040" transform="translate(560,380)"/>
<path d="" fill="#3F3E3E" transform="translate(0,0)"/>
<path d="M0 0 C0.66 0.66 1.32 1.32 2 2 C1.34 2 0.68 2 0 2 C0 1.34 0 0.68 0 0 Z " fill="#444344" transform="translate(272,634)"/>
<path d="M0 0 C0.33 0.66 0.66 1.32 1 2 C0.34 1.67 -0.32 1.34 -1 1 C-0.67 0.67 -0.34 0.34 0 0 Z " fill="#424140" transform="translate(433,564)"/>
<path d="M0 0 C0.99 0.495 0.99 0.495 2 1 C1.01 1.495 1.01 1.495 0 2 C0 1.34 0 0.68 0 0 Z " fill="#434344" transform="translate(504,464)"/>
<path d="" fill="#404142" transform="translate(0,0)"/>
<path d="" fill="#413F41" transform="translate(0,0)"/>
<path d="M0 0 C0.66 0 1.32 0 2 0 C1.67 0.66 1.34 1.32 1 2 C0.67 1.34 0.34 0.68 0 0 Z " fill="#454344" transform="translate(347,342)"/>
<path d="" fill="#454545" transform="translate(0,0)"/>
<path d="M0 0 C2 1 2 1 2 1 Z " fill="#42413F" transform="translate(539,765)"/>
<path d="" fill="#413F40" transform="translate(0,0)"/>
<path d="" fill="#3A3B3A" transform="translate(0,0)"/>
<path d="M0 0 C2 1 2 1 2 1 Z " fill="#3F3C3E" transform="translate(414,672)"/>
<path d="M0 0 C2 1 2 1 2 1 Z " fill="#413F40" transform="translate(400,664)"/>
<path d="M0 0 C2 1 2 1 2 1 Z " fill="#464444" transform="translate(733,647)"/>
<path d="" fill="#403F3F" transform="translate(0,0)"/>
<path d="M0 0 C2 1 2 1 2 1 Z " fill="#444342" transform="translate(357,632)"/>
<path d="M0 0 C2 1 2 1 2 1 Z " fill="#414040" transform="translate(754,630)"/>
<path d="M0 0 C2 1 2 1 2 1 Z " fill="#454446" transform="translate(267,630)"/>
<path d="" fill="#434141" transform="translate(0,0)"/>
<path d="M0 0 C2 1 2 1 2 1 Z " fill="#444342" transform="translate(513,495)"/>
<path d="M0 0 C2 1 2 1 2 1 Z " fill="#403F3E" transform="translate(400,488)"/>
<path d="M0 0 C2 1 2 1 2 1 Z " fill="#424041" transform="translate(632,482)"/>
<path d="M0 0 C2 1 2 1 2 1 Z " fill="#434240" transform="translate(640,473)"/>
<path d="M0 0 C2 1 2 1 2 1 Z " fill="#3F403E" transform="translate(528,456)"/>
<path d="M0 0 C2 1 2 1 2 1 Z " fill="#454544" transform="translate(549,450)"/>
<path d="M0 0 C2 1 2 1 2 1 Z " fill="#424041" transform="translate(704,434)"/>
<path d="M0 0 C2 1 2 1 2 1 Z " fill="#424240" transform="translate(704,432)"/>
<path d="M0 0 C2 1 2 1 2 1 Z " fill="#424241" transform="translate(576,432)"/>
<path d="M0 0 C2 1 2 1 2 1 Z " fill="#3E3D3C" transform="translate(294,416)"/>
<path d="" fill="#414141" transform="translate(0,0)"/>
<path d="M0 0 C2 1 2 1 2 1 Z " fill="#454544" transform="translate(416,402)"/>
<path d="" fill="#454243" transform="translate(0,0)"/>
<path d="" fill="#424243" transform="translate(0,0)"/>
<path d="M0 0 C2 1 2 1 2 1 Z " fill="#434241" transform="translate(737,389)"/>
<path d="" fill="#403E3D" transform="translate(0,0)"/>
<path d="" fill="#414041" transform="translate(0,0)"/>
<path d="M0 0 C2 1 2 1 2 1 Z " fill="#434241" transform="translate(521,363)"/>
<path d="M0 0 C2 1 2 1 2 1 Z " fill="#3E3D3C" transform="translate(699,358)"/>
<path d="M0 0 C2 1 2 1 2 1 Z " fill="#3C3C3D" transform="translate(582,328)"/>
<path d="" fill="#454344" transform="translate(0,0)"/>
<path d="M0 0 C2 1 2 1 2 1 Z " fill="#434140" transform="translate(714,312)"/>
<path d="M0 0 C2 1 2 1 2 1 Z " fill="#403E3F" transform="translate(664,280)"/>
<path d="" fill="#434141" transform="translate(0,0)"/>
<path d="M0 0 C2 1 2 1 2 1 Z " fill="#454544" transform="translate(406,248)"/>
<path d="M0 0 C2 1 2 1 2 1 Z " fill="#444542" transform="translate(431,232)"/>
<path d="M0 0 C2 1 2 1 2 1 Z " fill="#444243" transform="translate(443,224)"/>
<path d="M0 0 C2 1 2 1 2 1 Z " fill="#454342" transform="translate(440,224)"/>
<path d="M0 0 C2 1 2 1 2 1 Z " fill="#494948" transform="translate(464,211)"/>
<path d="" fill="#4A4C49" transform="translate(0,0)"/>
<path d="" fill="#757675" transform="translate(0,0)"/>
<path d="" fill="#434342" transform="translate(0,0)"/>
<path d="" fill="#454443" transform="translate(0,0)"/>
<path d="" fill="#444443" transform="translate(0,0)"/>
<path d="" fill="#424143" transform="translate(0,0)"/>
<path d="" fill="#474345" transform="translate(0,0)"/>
<path d="" fill="#3F3F3E" transform="translate(0,0)"/>
<path d="" fill="#454442" transform="translate(0,0)"/>
<path d="" fill="#40403E" transform="translate(0,0)"/>
<path d="" fill="#464445" transform="translate(0,0)"/>
<path d="" fill="#424141" transform="translate(0,0)"/>
<path d="" fill="#444240" transform="translate(0,0)"/>
<path d="" fill="#444343" transform="translate(0,0)"/>
<path d="" fill="#414240" transform="translate(0,0)"/>
<path d="" fill="#414140" transform="translate(0,0)"/>
<path d="" fill="#494744" transform="translate(0,0)"/>
<path d="" fill="#424143" transform="translate(0,0)"/>
<path d="" fill="#423F3F" transform="translate(0,0)"/>
<path d="" fill="#454645" transform="translate(0,0)"/>
<path d="" fill="#424242" transform="translate(0,0)"/>
<path d="" fill="#41413E" transform="translate(0,0)"/>
<path d="" fill="#434040" transform="translate(0,0)"/>
<path d="" fill="#403F3E" transform="translate(0,0)"/>
<path d="" fill="#424041" transform="translate(0,0)"/>
<path d="" fill="#434241" transform="translate(0,0)"/>
<path d="" fill="#42433F" transform="translate(0,0)"/>
<path d="" fill="#434242" transform="translate(0,0)"/>
<path d="" fill="#3F3F3F" transform="translate(0,0)"/>
<path d="" fill="#434142" transform="translate(0,0)"/>
<path d="" fill="#474646" transform="translate(0,0)"/>
<path d="" fill="#474545" transform="translate(0,0)"/>
<path d="" fill="#434541" transform="translate(0,0)"/>
<path d="" fill="#424040" transform="translate(0,0)"/>
<path d="" fill="#474746" transform="translate(0,0)"/>
<path d="" fill="#3F3E3D" transform="translate(0,0)"/>
<path d="" fill="#433D3F" transform="translate(0,0)"/>
<path d="" fill="#414140" transform="translate(0,0)"/>
<path d="" fill="#404041" transform="translate(0,0)"/>
<path d="" fill="#444142" transform="translate(0,0)"/>
<path d="" fill="#413E40" transform="translate(0,0)"/>
<path d="" fill="#444545" transform="translate(0,0)"/>
<path d="" fill="#423F40" transform="translate(0,0)"/>
<path d="" fill="#434040" transform="translate(0,0)"/>
<path d="" fill="#403D3E" transform="translate(0,0)"/>
<path d="" fill="#414240" transform="translate(0,0)"/>
<path d="" fill="#3D3D3B" transform="translate(0,0)"/>
<path d="" fill="#454544" transform="translate(0,0)"/>
<path d="" fill="#444243" transform="translate(0,0)"/>
<path d="" fill="#444743" transform="translate(0,0)"/>
<path d="" fill="#474547" transform="translate(0,0)"/>
<path d="" fill="#454345" transform="translate(0,0)"/>
<path d="" fill="#413F3F" transform="translate(0,0)"/>
<path d="" fill="#454645" transform="translate(0,0)"/>
<path d="" fill="#464446" transform="translate(0,0)"/>
<path d="" fill="#464546" transform="translate(0,0)"/>
<path d="" fill="#404240" transform="translate(0,0)"/>
<path d="" fill="#474546" transform="translate(0,0)"/>
<path d="" fill="#454141" transform="translate(0,0)"/>
<path d="" fill="#424443" transform="translate(0,0)"/>
<path d="" fill="#454543" transform="translate(0,0)"/>
<path d="" fill="#434343" transform="translate(0,0)"/>
<path d="" fill="#434241" transform="translate(0,0)"/>
<path d="" fill="#434144" transform="translate(0,0)"/>
<path d="" fill="#444442" transform="translate(0,0)"/>
<path d="" fill="#403E3C" transform="translate(0,0)"/>
<path d="" fill="#3D3C3E" transform="translate(0,0)"/>
<path d="" fill="#444643" transform="translate(0,0)"/>
<path d="" fill="#434242" transform="translate(0,0)"/>
<path d="" fill="#41403F" transform="translate(0,0)"/>
<path d="" fill="#413E3D" transform="translate(0,0)"/>
<path d="" fill="#454241" transform="translate(0,0)"/>
<path d="" fill="#403F3E" transform="translate(0,0)"/>
<path d="" fill="#414240" transform="translate(0,0)"/>
<path d="" fill="#3D3B3A" transform="translate(0,0)"/>
<path d="" fill="#424241" transform="translate(0,0)"/>
<path d="" fill="#424242" transform="translate(0,0)"/>
<path d="" fill="#414040" transform="translate(0,0)"/>
<path d="" fill="#434243" transform="translate(0,0)"/>
<path d="" fill="#434242" transform="translate(0,0)"/>
<path d="" fill="#434142" transform="translate(0,0)"/>
<path d="" fill="#3F4140" transform="translate(0,0)"/>
<path d="" fill="#424240" transform="translate(0,0)"/>
<path d="" fill="#434140" transform="translate(0,0)"/>
<path d="" fill="#41433F" transform="translate(0,0)"/>
<path d="" fill="#413F40" transform="translate(0,0)"/>
<path d="" fill="#3E3F3F" transform="translate(0,0)"/>
<path d="" fill="#434243" transform="translate(0,0)"/>
<path d="" fill="#42403F" transform="translate(0,0)"/>
<path d="" fill="#42433F" transform="translate(0,0)"/>
<path d="" fill="#413E41" transform="translate(0,0)"/>
<path d="" fill="#413D3F" transform="translate(0,0)"/>
<path d="" fill="#424042" transform="translate(0,0)"/>
<path d="" fill="#40403E" transform="translate(0,0)"/>
<path d="" fill="#424040" transform="translate(0,0)"/>
<path d="" fill="#434242" transform="translate(0,0)"/>
<path d="" fill="#454342" transform="translate(0,0)"/>
<path d="" fill="#3F3D3D" transform="translate(0,0)"/>
<path d="" fill="#424342" transform="translate(0,0)"/>
<path d="" fill="#3F3C3E" transform="translate(0,0)"/>
<path d="" fill="#464442" transform="translate(0,0)"/>
<path d="" fill="#3E3C3D" transform="translate(0,0)"/>
<path d="" fill="#464542" transform="translate(0,0)"/>
<path d="" fill="#444342" transform="translate(0,0)"/>
<path d="" fill="#3F3A3A" transform="translate(0,0)"/>
<path d="" fill="#3F3F3F" transform="translate(0,0)"/>
<path d="" fill="#413F3E" transform="translate(0,0)"/>
<path d="" fill="#3E3E3D" transform="translate(0,0)"/>
<path d="" fill="#413F40" transform="translate(0,0)"/>
<path d="" fill="#414340" transform="translate(0,0)"/>
<path d="" fill="#464546" transform="translate(0,0)"/>
<path d="" fill="#444241" transform="translate(0,0)"/>
<path d="" fill="#423F40" transform="translate(0,0)"/>
<path d="" fill="#413F3D" transform="translate(0,0)"/>
<path d="" fill="#3F3E3F" transform="translate(0,0)"/>
<path d="" fill="#423E3F" transform="translate(0,0)"/>
<path d="" fill="#3E3D3C" transform="translate(0,0)"/>
<path d="" fill="#424140" transform="translate(0,0)"/>
<path d="" fill="#464546" transform="translate(0,0)"/>
<path d="" fill="#424140" transform="translate(0,0)"/>
<path d="" fill="#434041" transform="translate(0,0)"/>
<path d="" fill="#434241" transform="translate(0,0)"/>
<path d="" fill="#3D3C3A" transform="translate(0,0)"/>
<path d="" fill="#424040" transform="translate(0,0)"/>
<path d="" fill="#403F41" transform="translate(0,0)"/>
<path d="" fill="#404039" transform="translate(0,0)"/>
<path d="" fill="#414140" transform="translate(0,0)"/>
<path d="" fill="#403D3D" transform="translate(0,0)"/>
<path d="" fill="#404041" transform="translate(0,0)"/>
<path d="" fill="#414141" transform="translate(0,0)"/>
<path d="" fill="#42413F" transform="translate(0,0)"/>
<path d="" fill="#41413E" transform="translate(0,0)"/>
<path d="" fill="#434441" transform="translate(0,0)"/>
<path d="" fill="#403F3E" transform="translate(0,0)"/>
<path d="" fill="#414040" transform="translate(0,0)"/>
<path d="" fill="#454544" transform="translate(0,0)"/>
<path d="" fill="#424041" transform="translate(0,0)"/>
<path d="" fill="#3F3E3D" transform="translate(0,0)"/>
<path d="" fill="#454341" transform="translate(0,0)"/>
<path d="" fill="#393B38" transform="translate(0,0)"/>
<path d="" fill="#424141" transform="translate(0,0)"/>
<path d="" fill="#424041" transform="translate(0,0)"/>
<path d="" fill="#434341" transform="translate(0,0)"/>
<path d="" fill="#3F3F3D" transform="translate(0,0)"/>
<path d="" fill="#413F3E" transform="translate(0,0)"/>
<path d="" fill="#3E3E3E" transform="translate(0,0)"/>
<path d="" fill="#424040" transform="translate(0,0)"/>
<path d="" fill="#424141" transform="translate(0,0)"/>
<path d="" fill="#404240" transform="translate(0,0)"/>
<path d="" fill="#3B3D3B" transform="translate(0,0)"/>
<path d="" fill="#403E3C" transform="translate(0,0)"/>
<path d="" fill="#454343" transform="translate(0,0)"/>
<path d="" fill="#3E3F3E" transform="translate(0,0)"/>
<path d="" fill="#434342" transform="translate(0,0)"/>
<path d="" fill="#41403F" transform="translate(0,0)"/>
<path d="" fill="#414242" transform="translate(0,0)"/>
<path d="" fill="#454444" transform="translate(0,0)"/>
<path d="" fill="#424240" transform="translate(0,0)"/>
<path d="" fill="#3D3E3D" transform="translate(0,0)"/>
<path d="" fill="#413F3F" transform="translate(0,0)"/>
<path d="" fill="#444242" transform="translate(0,0)"/>
<path d="" fill="#444241" transform="translate(0,0)"/>
<path d="" fill="#413F3F" transform="translate(0,0)"/>
<path d="" fill="#434340" transform="translate(0,0)"/>
<path d="" fill="#44433F" transform="translate(0,0)"/>
<path d="" fill="#3F3E3F" transform="translate(0,0)"/>
<path d="" fill="#403E41" transform="translate(0,0)"/>
<path d="" fill="#423F41" transform="translate(0,0)"/>
<path d="" fill="#3D3B3A" transform="translate(0,0)"/>
<path d="" fill="#424341" transform="translate(0,0)"/>
<path d="" fill="#434242" transform="translate(0,0)"/>
<path d="" fill="#3F3C3C" transform="translate(0,0)"/>
<path d="" fill="#3F4041" transform="translate(0,0)"/>
<path d="" fill="#3F3E3E" transform="translate(0,0)"/>
<path d="" fill="#3F3F3D" transform="translate(0,0)"/>
<path d="" fill="#424141" transform="translate(0,0)"/>
<path d="" fill="#434342" transform="translate(0,0)"/>
<path d="" fill="#414442" transform="translate(0,0)"/>
<path d="" fill="#3D3A3A" transform="translate(0,0)"/>
<path d="" fill="#3E413F" transform="translate(0,0)"/>
<path d="" fill="#424240" transform="translate(0,0)"/>
<path d="" fill="#414141" transform="translate(0,0)"/>
<path d="" fill="#424041" transform="translate(0,0)"/>
<path d="" fill="#3E3F40" transform="translate(0,0)"/>
<path d="" fill="#434040" transform="translate(0,0)"/>
<path d="" fill="#403E40" transform="translate(0,0)"/>
<path d="" fill="#434142" transform="translate(0,0)"/>
<path d="" fill="#434143" transform="translate(0,0)"/>
<path d="" fill="#464545" transform="translate(0,0)"/>
<path d="" fill="#3C3939" transform="translate(0,0)"/>
<path d="" fill="#474447" transform="translate(0,0)"/>
<path d="" fill="#444343" transform="translate(0,0)"/>
<path d="" fill="#424141" transform="translate(0,0)"/>
<path d="" fill="#464343" transform="translate(0,0)"/>
<path d="" fill="#464746" transform="translate(0,0)"/>
<path d="" fill="#434240" transform="translate(0,0)"/>
<path d="" fill="#474546" transform="translate(0,0)"/>
<path d="" fill="#444443" transform="translate(0,0)"/>
<path d="" fill="#454545" transform="translate(0,0)"/>
<path d="" fill="#464944" transform="translate(0,0)"/>
<path d="" fill="#454345" transform="translate(0,0)"/>
<path d="" fill="#454644" transform="translate(0,0)"/>
<path d="" fill="#454444" transform="translate(0,0)"/>
<path d="" fill="#474844" transform="translate(0,0)"/>
<path d="" fill="#404240" transform="translate(0,0)"/>
<path d="" fill="#464746" transform="translate(0,0)"/>
<path d="" fill="#444342" transform="translate(0,0)"/>
<path d="" fill="#464442" transform="translate(0,0)"/>
<path d="" fill="#424140" transform="translate(0,0)"/>
<path d="" fill="#3F3D3E" transform="translate(0,0)"/>
<path d="" fill="#464444" transform="translate(0,0)"/>
<path d="" fill="#444140" transform="translate(0,0)"/>
<path d="" fill="#424241" transform="translate(0,0)"/>
<path d="" fill="#424141" transform="translate(0,0)"/>
<path d="" fill="#424141" transform="translate(0,0)"/>
<path d="" fill="#474547" transform="translate(0,0)"/>
<path d="" fill="#434541" transform="translate(0,0)"/>
<path d="" fill="#424242" transform="translate(0,0)"/>
<path d="" fill="#3E3F3F" transform="translate(0,0)"/>
<path d="" fill="#3E3D3D" transform="translate(0,0)"/>
<path d="" fill="#424141" transform="translate(0,0)"/>
<path d="" fill="#413F3E" transform="translate(0,0)"/>
<path d="" fill="#404040" transform="translate(0,0)"/>
<path d="" fill="#41403E" transform="translate(0,0)"/>
<path d="" fill="#3D3D3D" transform="translate(0,0)"/>
<path d="" fill="#3E3E40" transform="translate(0,0)"/>
<path d="" fill="#3F4041" transform="translate(0,0)"/>
<path d="" fill="#3F4141" transform="translate(0,0)"/>
<path d="" fill="#3E3E3E" transform="translate(0,0)"/>
<path d="" fill="#3D3E3C" transform="translate(0,0)"/>
<path d="" fill="#40403F" transform="translate(0,0)"/>
<path d="" fill="#444342" transform="translate(0,0)"/>
<path d="" fill="#434342" transform="translate(0,0)"/>
<path d="" fill="#3F3F3E" transform="translate(0,0)"/>
<path d="" fill="#403D3F" transform="translate(0,0)"/>
<path d="" fill="#444240" transform="translate(0,0)"/>
<path d="" fill="#454342" transform="translate(0,0)"/>
<path d="" fill="#464545" transform="translate(0,0)"/>
<path d="" fill="#484747" transform="translate(0,0)"/>
<path d="" fill="#484546" transform="translate(0,0)"/>
<path d="" fill="#3B3B39" transform="translate(0,0)"/>
<path d="" fill="#403F40" transform="translate(0,0)"/>
<path d="" fill="#424242" transform="translate(0,0)"/>
<path d="" fill="#4A4947" transform="translate(0,0)"/>
<path d="" fill="#414142" transform="translate(0,0)"/>
<path d="" fill="#484947" transform="translate(0,0)"/>
<path d="" fill="#454443" transform="translate(0,0)"/>
<path d="" fill="#434344" transform="translate(0,0)"/>
<path d="" fill="#494847" transform="translate(0,0)"/>
<path d="" fill="#414140" transform="translate(0,0)"/>
<path d="" fill="#414141" transform="translate(0,0)"/>
<path d="" fill="#454444" transform="translate(0,0)"/>
<path d="" fill="#40413F" transform="translate(0,0)"/>
<path d="" fill="#4A4748" transform="translate(0,0)"/>
<path d="" fill="#414140" transform="translate(0,0)"/>
<path d="" fill="#464542" transform="translate(0,0)"/>
<path d="" fill="#484544" transform="translate(0,0)"/>
<path d="" fill="#414040" transform="translate(0,0)"/>
<path d="" fill="#424544" transform="translate(0,0)"/>
<path d="" fill="#444242" transform="translate(0,0)"/>
<path d="" fill="#454343" transform="translate(0,0)"/>
<path d="" fill="#464547" transform="translate(0,0)"/>
<path d="" fill="#444342" transform="translate(0,0)"/>
<path d="" fill="#454442" transform="translate(0,0)"/>
<path d="" fill="#454443" transform="translate(0,0)"/>
<path d="" fill="#454545" transform="translate(0,0)"/>
<path d="" fill="#414140" transform="translate(0,0)"/>
<path d="" fill="#464644" transform="translate(0,0)"/>
<path d="" fill="#464644" transform="translate(0,0)"/>
<path d="" fill="#484745" transform="translate(0,0)"/>
<path d="" fill="#484A45" transform="translate(0,0)"/>
<path d="" fill="#444241" transform="translate(0,0)"/>
<path d="" fill="#404040" transform="translate(0,0)"/>
<path d="" fill="#414242" transform="translate(0,0)"/>
<path d="" fill="#444442" transform="translate(0,0)"/>
<path d="" fill="#444241" transform="translate(0,0)"/>
<path d="" fill="#3F3E3E" transform="translate(0,0)"/>
<path d="" fill="#434141" transform="translate(0,0)"/>
<path d="" fill="#474645" transform="translate(0,0)"/>
<path d="" fill="#454243" transform="translate(0,0)"/>
<path d="" fill="#464644" transform="translate(0,0)"/>
<path d="" fill="#464443" transform="translate(0,0)"/>
<path d="" fill="#434041" transform="translate(0,0)"/>
<path d="" fill="#454544" transform="translate(0,0)"/>
<path d="" fill="#41403F" transform="translate(0,0)"/>
<path d="" fill="#413E40" transform="translate(0,0)"/>
<path d="" fill="#464546" transform="translate(0,0)"/>
<path d="" fill="#414342" transform="translate(0,0)"/>
<path d="" fill="#434140" transform="translate(0,0)"/>
<path d="" fill="#433D3F" transform="translate(0,0)"/>
<path d="" fill="#474545" transform="translate(0,0)"/>
<path d="" fill="#424141" transform="translate(0,0)"/>
<path d="" fill="#424140" transform="translate(0,0)"/>
<path d="" fill="#434242" transform="translate(0,0)"/>
<path d="" fill="#413F42" transform="translate(0,0)"/>
<path d="" fill="#3F3E3D" transform="translate(0,0)"/>
<path d="" fill="#403F3F" transform="translate(0,0)"/>
<path d="" fill="#444243" transform="translate(0,0)"/>
<path d="" fill="#434040" transform="translate(0,0)"/>
<path d="" fill="#403E40" transform="translate(0,0)"/>
<path d="" fill="#403E3C" transform="translate(0,0)"/>
<path d="" fill="#3F3F3D" transform="translate(0,0)"/>
<path d="" fill="#454243" transform="translate(0,0)"/>
<path d="" fill="#413F42" transform="translate(0,0)"/>
<path d="" fill="#414140" transform="translate(0,0)"/>
<path d="" fill="#434042" transform="translate(0,0)"/>
<path d="" fill="#434042" transform="translate(0,0)"/>
<path d="" fill="#494846" transform="translate(0,0)"/>
<path d="" fill="#444546" transform="translate(0,0)"/>
<path d="" fill="#484441" transform="translate(0,0)"/>
<path d="" fill="#494646" transform="translate(0,0)"/>
<path d="" fill="#40403F" transform="translate(0,0)"/>
<path d="" fill="#424140" transform="translate(0,0)"/>
<path d="" fill="#3F3F40" transform="translate(0,0)"/>
<path d="" fill="#444343" transform="translate(0,0)"/>
<path d="" fill="#464342" transform="translate(0,0)"/>
<path d="" fill="#464442" transform="translate(0,0)"/>
<path d="" fill="#4A4746" transform="translate(0,0)"/>
<path d="" fill="#434343" transform="translate(0,0)"/>
<path d="" fill="#464344" transform="translate(0,0)"/>
<path d="" fill="#474546" transform="translate(0,0)"/>
<path d="" fill="#454645" transform="translate(0,0)"/>
<path d="" fill="#464746" transform="translate(0,0)"/>
<path d="" fill="#41423F" transform="translate(0,0)"/>
<path d="" fill="#424140" transform="translate(0,0)"/>
<path d="" fill="#454243" transform="translate(0,0)"/>
<path d="" fill="#434141" transform="translate(0,0)"/>
<path d="" fill="#494946" transform="translate(0,0)"/>
<path d="" fill="#484747" transform="translate(0,0)"/>
<path d="" fill="#434140" transform="translate(0,0)"/>
<path d="" fill="#474443" transform="translate(0,0)"/>
<path d="" fill="#454443" transform="translate(0,0)"/>
<path d="" fill="#454343" transform="translate(0,0)"/>
<path d="" fill="#4B4A49" transform="translate(0,0)"/>
<path d="" fill="#4A4848" transform="translate(0,0)"/>
<path d="" fill="#474544" transform="translate(0,0)"/>
<path d="" fill="#4D4D48" transform="translate(0,0)"/>
<path d="" fill="#4A4947" transform="translate(0,0)"/>
</svg>
