<svg width="72" height="72" viewBox="0 0 72 72" fill="none" xmlns="http://www.w3.org/2000/svg">
<path fill-rule="evenodd" clip-rule="evenodd" d="M9.99636 64.8026L4.21875 0H67.7047L61.921 64.7925L35.9229 72L9.99636 64.8026Z" fill="#E44D26"/>
<path fill-rule="evenodd" clip-rule="evenodd" d="M35.9619 66.4906L56.9696 60.6665L61.9122 5.29834H35.9619V66.4906Z" fill="#F16529"/>
<path d="M25.4445 29.3331H35.9615V37.2808H18.1759L16.0322 13.2466H35.9615V21.1944H24.7182L25.4445 29.3331Z" fill="#EBEBEB"/>
<path d="M35.9266 49.9836L35.9615 49.9743V58.2433L35.9249 58.2535L19.6445 53.7339L18.531 41.2548H26.5093L27.0752 47.5935L35.9266 49.9836Z" fill="#EBEBEB"/>
<path d="M35.9341 13.2466H55.8434L55.1317 21.1944H35.9341V13.2466Z" fill="white"/>
<path d="M35.9341 37.2808V29.3331H54.4086L54.2146 31.4673L52.2275 53.7339L35.9341 58.2496V49.981L44.7984 47.5884L45.7209 37.2808H35.9341Z" fill="white"/>
</svg>
