<svg width="72" height="72" viewBox="0 0 72 72" fill="none" xmlns="http://www.w3.org/2000/svg">
<path fill-rule="evenodd" clip-rule="evenodd" d="M9.99653 64.8023L4.21875 0H67.7073L61.9233 64.7917L35.9246 72L9.99653 64.8023Z" fill="#0071BC"/>
<path fill-rule="evenodd" clip-rule="evenodd" d="M36.0161 66.4866L56.9983 60.7144L61.9144 5.39648H36.0161V66.4866Z" fill="#29ABE2"/>
<path fill-rule="evenodd" clip-rule="evenodd" d="M17.4438 29.2048L18.1398 37.1409L36.0162 29.2048V21.2559L17.4438 29.2048Z" fill="#B3B3B3"/>
<path fill-rule="evenodd" clip-rule="evenodd" d="M55.8147 12.7705L36.0161 21.2556V29.2045L55.132 20.7066L55.8147 12.7705Z" fill="#E6E6E6"/>
<path fill-rule="evenodd" clip-rule="evenodd" d="M36.0165 49.9693L35.9551 49.9785L27.0897 47.5977L26.5105 41.2676H18.5317L19.6452 53.7383L35.9533 58.2538L36.0165 58.2389V49.9693Z" fill="#E6E6E6"/>
<path fill-rule="evenodd" clip-rule="evenodd" d="M36.0161 29.2046V37.1407H45.7222L44.8401 47.5164L36.0161 49.976V58.2449L52.2701 53.7294L54.4105 29.2046H36.0161Z" fill="white"/>
<path fill-rule="evenodd" clip-rule="evenodd" d="M36.0162 29.2046H17.4438L18.1398 37.1407H36.0162V29.2046Z" fill="#E6E6E6"/>
<path fill-rule="evenodd" clip-rule="evenodd" d="M36.0165 20.7066V12.7705H35.9359H16.0332L16.7375 20.7066H36.0165Z" fill="#E6E6E6"/>
<path fill-rule="evenodd" clip-rule="evenodd" d="M36.0161 12.7705V20.6071V20.7066H55.132L55.8147 12.7705H36.0161Z" fill="white"/>
</svg>
