<svg width="86" height="86" viewBox="0 0 86 86" fill="none" xmlns="http://www.w3.org/2000/svg">
<g clip-path="url(#clip0_173_3626)">
<path d="M0 0V86H86V0H0ZM46.0714 66.8036C46.0714 75.1751 41.1264 79.2563 33.9681 79.2563C27.5027 79.2563 23.7498 75.9084 21.8455 71.8676L28.4261 67.8843C29.695 70.1361 30.6586 72.0404 33.4287 72.0404C35.7322 72.0404 37.625 71.0018 37.625 66.961V39.9286H46.0714V66.8036ZM65.1431 79.0643C57.6392 79.0643 52.7902 75.6781 50.4233 71.0018L57.0134 67.1875C58.7411 70.0171 60.9967 71.9021 64.9799 71.9021C68.3278 71.9021 70.2724 70.4202 70.2724 68.1108C70.2724 65.3408 68.2702 64.3599 64.5749 62.7358L62.5554 61.8682C56.7235 59.388 52.8574 56.2705 52.8574 49.688C52.8574 43.6277 57.4741 39.201 64.69 39.201C69.8289 39.201 73.5204 40.7982 76.1791 45.4744L69.875 49.5268C68.489 47.0447 66.9955 46.0714 64.6804 46.0714C62.3135 46.0714 60.8124 47.5726 60.8124 49.5268C60.8124 51.9513 62.3135 52.9322 65.7766 54.4334L67.796 55.2992C74.6664 58.2439 78.5345 61.25 78.5345 67.9995C78.5364 75.275 72.8217 79.0643 65.1431 79.0643Z" fill="#FFC928"/>
</g>
<defs>
<clipPath id="clip0_173_3626">
<rect width="86" height="86" fill="white"/>
</clipPath>
</defs>
</svg>
