<svg width="81" height="72" viewBox="0 0 81 72" fill="none" xmlns="http://www.w3.org/2000/svg">
<path d="M66.5983 23.3365C65.758 23.0476 64.8873 22.7742 63.9908 22.5156C64.1381 21.9148 64.2734 21.3218 64.3936 20.7388C66.3674 11.1666 65.0769 3.45518 60.6701 0.916249C56.4445 -1.51825 49.5338 1.02011 42.5544 7.08843C41.8833 7.67195 41.2102 8.28976 40.5375 8.93724C40.0892 8.50885 39.6417 8.09487 39.1953 7.69889C31.8807 1.21024 24.5489 -1.52416 20.1464 1.02212C15.9248 3.46368 14.6747 10.7132 16.4514 19.7848C16.623 20.6611 16.8235 21.5559 17.0503 22.4657C16.0127 22.7599 15.0109 23.0737 14.0524 23.4074C5.47678 26.3945 0 31.0759 0 35.9318C0 40.947 5.87933 45.9774 14.8115 49.0275C15.5164 49.2682 16.2478 49.4958 17.0016 49.7119C16.7569 50.6959 16.5441 51.6601 16.3655 52.6006C14.6714 61.5148 15.9943 68.593 20.2047 71.0192C24.5535 73.5247 31.8522 70.9493 38.9592 64.7427C39.5209 64.2521 40.0846 63.7318 40.6494 63.1864C41.3814 63.8907 42.1122 64.5572 42.8392 65.1823C49.7231 71.1007 56.5222 73.4905 60.7286 71.0576C65.0731 68.5449 66.4851 60.9412 64.652 51.6901C64.512 50.9835 64.3491 50.2617 64.1661 49.5271C64.6787 49.3757 65.1818 49.2194 65.6725 49.0569C74.9583 45.9831 81 41.014 81 35.9318C81 31.0584 75.3466 26.3454 66.5983 23.3365ZM64.5842 45.7754C64.1413 45.9219 63.6869 46.0635 63.2237 46.2008C62.1986 42.9585 60.8151 39.5108 59.122 35.9487C60.7377 32.4714 62.0677 29.0678 63.0641 25.8465C63.8927 26.0861 64.697 26.3387 65.4719 26.6054C72.9675 29.1833 77.5397 32.9949 77.5397 35.9318C77.5397 39.0602 72.6019 43.1213 64.5842 45.7754ZM61.2574 52.3614C62.068 56.4522 62.1838 60.1507 61.6469 63.0419C61.1644 65.6399 60.1943 67.3721 58.9947 68.0658C56.442 69.542 50.9831 67.6231 45.0958 62.5617C44.4209 61.9815 43.7411 61.362 43.0592 60.7063C45.3415 58.2124 47.6226 55.3132 49.8488 52.0934C53.7646 51.7462 57.4641 51.1787 60.819 50.4039C60.9842 51.0698 61.131 51.7229 61.2574 52.3614ZM27.6147 67.8107C25.1207 68.6907 23.1344 68.7159 21.9336 68.0242C19.3787 66.5519 18.3165 60.8687 19.7653 53.2453C19.9313 52.3722 20.1288 51.4754 20.3565 50.5587C23.6746 51.2918 27.347 51.8193 31.2721 52.1372C33.5134 55.2879 35.8603 58.1839 38.2254 60.7197C37.7087 61.218 37.194 61.6925 36.6821 62.1396C33.5395 64.8841 30.3902 66.8313 27.6147 67.8107ZM15.9306 45.7563C11.981 44.4076 8.71922 42.6547 6.48344 40.7419C4.47445 39.023 3.46015 37.3165 3.46015 35.9318C3.46015 32.9851 7.85746 29.2265 15.1914 26.6719C16.0813 26.3619 17.0128 26.0698 17.9795 25.7954C18.9931 29.0894 20.3227 32.5334 21.9273 36.016C20.302 39.5502 18.9535 43.0491 17.9299 46.3817C17.2408 46.1838 16.5731 45.9755 15.9306 45.7563ZM19.8472 19.1209C18.325 11.3486 19.336 5.48535 21.88 4.01408C24.5899 2.44673 30.5821 4.68144 36.8977 10.2841C37.3014 10.6422 37.7067 11.017 38.1131 11.4047C35.7597 13.9294 33.4342 16.8037 31.2129 19.9358C27.4034 20.2886 23.7568 20.8552 20.4041 21.6141C20.1933 20.7669 20.0066 19.9346 19.8472 19.1209ZM54.787 27.7404C53.9855 26.3573 53.1627 25.0069 52.3238 23.6933C54.9082 24.0198 57.3844 24.453 59.7097 24.9833C59.0116 27.2186 58.1414 29.5557 57.1172 31.9516C56.3825 30.558 55.6053 29.1528 54.787 27.7404ZM40.5386 13.8754C42.1347 15.6029 43.7331 17.5317 45.3052 19.6244C43.721 19.5496 42.1171 19.5107 40.5 19.5107C38.8982 19.5107 37.3061 19.5487 35.7317 19.6222C37.3054 17.549 38.9176 15.6228 40.5386 13.8754ZM26.199 27.7643C25.3984 29.1514 24.6357 30.5489 23.9125 31.949C22.9048 29.5614 22.0428 27.2137 21.3386 24.9467C23.6497 24.43 26.1141 24.0075 28.6821 23.6873C27.8314 25.0129 27.0018 26.3733 26.199 27.7641V27.7643ZM28.7561 48.423C26.1029 48.1272 23.6014 47.7265 21.2909 47.2241C22.0063 44.9166 22.8874 42.5187 23.9164 40.0797C24.6415 41.4789 25.4072 42.877 26.2127 44.267H26.2129C27.0334 45.6831 27.8835 47.0702 28.7561 48.423ZM40.6344 58.232C38.9943 56.4641 37.3585 54.5086 35.7608 52.4051C37.3118 52.4659 38.893 52.497 40.5 52.497C42.151 52.497 43.7831 52.4598 45.3895 52.3884C43.8122 54.5298 42.2196 56.4883 40.6344 58.232ZM57.1502 39.9554C58.2329 42.4208 59.1455 44.8061 59.8701 47.0743C57.5216 47.6096 54.9859 48.0407 52.3143 48.361C53.1552 47.0298 53.9852 45.6562 54.8008 44.2432C55.626 42.8137 56.4094 41.3821 57.1502 39.9554ZM51.8035 42.5161C50.5373 44.7095 49.2374 46.8033 47.9177 48.7798C45.5141 48.9515 43.0309 49.0399 40.5 49.0399C37.9793 49.0399 35.5274 48.9617 33.1663 48.8086C31.7935 46.8062 30.4653 44.7062 29.2072 42.535H29.2075C27.9527 40.3697 26.7978 38.1861 25.7514 36.0148C26.7975 33.8384 27.9494 31.6524 29.1969 29.491L29.1967 29.4914C30.4476 27.3243 31.7641 25.2345 33.1242 23.2446C35.5332 23.0627 38.0034 22.9678 40.4999 22.9678H40.5C43.0077 22.9678 45.4811 23.0634 47.8893 23.247C49.2287 25.2222 50.5363 27.3053 51.7921 29.4727C53.0622 31.6645 54.2289 33.836 55.284 35.9657C54.232 38.132 53.0679 40.3253 51.8035 42.5161ZM58.9416 3.91123C61.6541 5.47397 62.7089 11.7765 61.0047 20.0411C60.896 20.5684 60.7736 21.1056 60.6406 21.6499C57.2801 20.8753 53.6309 20.2988 49.8104 19.9407C47.5847 16.7742 45.2782 13.8954 42.9632 11.4031C43.5856 10.8049 44.2071 10.2345 44.8261 9.69622C50.8061 4.49692 56.3952 2.44413 58.9416 3.91123ZM40.5 28.7055C44.4946 28.7055 47.733 31.9408 47.733 35.9318C47.733 39.9227 44.4946 43.1581 40.5 43.1581C36.5054 43.1581 33.267 39.9227 33.267 35.9318C33.267 31.9408 36.5054 28.7055 40.5 28.7055Z" fill="#00D8FF"/>
</svg>
