<svg width="112" height="100" viewBox="0 0 112 100" fill="none" xmlns="http://www.w3.org/2000/svg">
<path d="M92.0865 32.4119C90.9246 32.0105 89.7207 31.6308 88.4811 31.2717C88.6848 30.4373 88.8718 29.6136 89.0381 28.8039C91.7673 15.5092 89.9828 4.79887 83.8895 1.27257C78.0467 -2.10869 68.4912 1.41681 58.8407 9.84504C57.9126 10.6555 56.982 11.5136 56.0518 12.4128C55.432 11.8179 54.8132 11.2429 54.196 10.6929C44.082 1.6809 33.9442 -2.11689 27.8568 1.41961C22.0195 4.81067 20.2909 14.8794 22.7476 27.4789C22.9848 28.6959 23.2621 29.9387 23.5757 31.2023C22.141 31.611 20.7558 32.0468 19.4305 32.5103C7.57283 36.659 0 43.161 0 49.9053C0 56.8709 8.12944 63.8575 20.4801 68.0938C21.4548 68.4281 22.4661 68.7442 23.5084 69.0443C23.17 70.4109 22.8758 71.7501 22.6288 73.0563C20.2863 85.4372 22.1156 95.2681 27.9373 98.6377C33.9506 102.118 44.0425 98.5407 53.8695 89.9204C54.6462 89.239 55.4256 88.5163 56.2065 87.7589C57.2187 88.737 58.2292 89.6627 59.2344 90.531C68.753 98.7509 78.1541 102.07 83.9704 98.6911C89.9777 95.2012 91.93 84.6405 89.3953 71.7917C89.2018 70.8104 88.9765 69.8079 88.7235 68.7876C89.4322 68.5773 90.128 68.3603 90.8064 68.1346C103.646 63.8655 112 56.9639 112 49.9053C112 43.1366 104.183 36.5908 92.0865 32.4119ZM89.3016 63.577C88.6892 63.7804 88.0608 63.9771 87.4205 64.1678C86.0031 59.6646 84.09 54.8761 81.7489 49.9287C83.983 45.0992 85.822 40.3719 87.1998 35.898C88.3455 36.2307 89.4575 36.5816 90.5291 36.9519C100.893 40.5324 107.215 45.8262 107.215 49.9053C107.215 54.2503 100.388 59.8906 89.3016 63.577ZM84.7016 72.7242C85.8224 78.4058 85.9825 83.5426 85.2401 87.5583C84.5731 91.1666 83.2316 93.5723 81.5729 94.5358C78.0433 96.5861 70.4952 93.921 62.3548 86.8912C61.4216 86.0854 60.4816 85.2249 59.5386 84.3142C62.6945 80.8506 65.8485 76.8239 68.9268 72.3519C74.3412 71.8698 79.4565 71.0815 84.0954 70.0054C84.3239 70.9303 84.5268 71.8374 84.7016 72.7242ZM38.1833 94.1815C34.7348 95.4037 31.9883 95.4387 30.328 94.478C26.7952 92.4332 25.3265 84.5399 27.3299 73.9518C27.5593 72.7392 27.8324 71.4936 28.1472 70.2204C32.7353 71.2386 37.8131 71.9712 43.2405 72.4127C46.3395 76.7887 49.5846 80.811 52.8549 84.3328C52.1404 85.0251 51.4287 85.6841 50.721 86.3051C46.3756 90.1168 42.021 92.8213 38.1833 94.1815ZM22.0275 63.5504C16.5663 61.6772 12.0562 59.2426 8.96475 56.586C6.18689 54.1987 4.7844 51.8285 4.7844 49.9053C4.7844 45.8126 10.8646 40.5924 21.0054 37.0443C22.2358 36.6138 23.5239 36.208 24.8606 35.8269C26.2621 40.402 28.1006 45.1852 30.3192 50.0222C28.0719 54.9309 26.2073 59.7904 24.792 64.419C23.8391 64.1442 22.9159 63.8549 22.0275 63.5504ZM27.4431 26.5568C25.3383 15.7619 26.7362 7.61854 30.2538 5.57511C34.0008 3.39823 42.2863 6.502 51.019 14.2834C51.5772 14.7808 52.1376 15.3013 52.6996 15.8399C49.4455 19.3464 46.23 23.3384 43.1585 27.6886C37.8911 28.1786 32.8489 28.9656 28.213 30.0195C27.9216 28.843 27.6634 27.687 27.4431 26.5568ZM75.7548 38.5284C74.6466 36.6074 73.5089 34.7318 72.349 32.9074C75.9225 33.3608 79.3463 33.9626 82.5615 34.699C81.5962 37.8035 80.3931 41.0496 78.9769 44.3772C77.9609 42.4416 76.8864 40.49 75.7548 38.5284ZM56.0534 19.2714C58.2603 21.6707 60.4704 24.3496 62.6442 27.2561C60.4537 27.1522 58.236 27.0982 56 27.0982C53.7851 27.0982 51.5838 27.151 49.4068 27.2531C51.5828 24.3736 53.812 21.6983 56.0534 19.2714ZM36.2258 38.5616C35.1188 40.488 34.0642 42.429 33.0642 44.3736C31.6709 41.0576 30.4789 37.7967 29.5053 34.6482C32.7008 33.9305 36.1084 33.3438 39.6592 32.899C38.483 34.7402 37.3359 36.6296 36.2258 38.5612V38.5616ZM39.7615 67.2541C36.0929 66.8434 32.634 66.2868 29.4393 65.589C30.4285 62.3842 31.6468 59.0538 33.0696 55.6663C34.0722 57.6095 35.131 59.5513 36.2448 61.4819H36.245C37.3795 63.4487 38.5549 65.3753 39.7615 67.2541ZM56.1858 80.8778C53.9181 78.4224 51.6562 75.7064 49.4471 72.7848C51.5916 72.8693 53.778 72.9125 56 72.9125C58.2829 72.9125 60.5396 72.8609 62.7608 72.7616C60.5799 75.7358 58.3778 78.456 56.1858 80.8778ZM79.0225 55.4937C80.5195 58.9177 81.7814 62.2308 82.7834 65.3809C79.5361 66.1244 76.0299 66.7232 72.3358 67.1681C73.4985 65.3191 74.6462 63.4113 75.774 61.4489C76.9149 59.4635 77.9982 57.4751 79.0225 55.4937ZM71.6295 59.0502C69.8787 62.0965 68.0813 65.0046 66.2566 67.7497C62.9331 67.9882 59.4995 68.111 56 68.111C52.5146 68.111 49.1243 68.0024 45.8596 67.7897C43.9613 65.0086 42.1248 62.0919 40.3852 59.0764H40.3856C38.6506 56.069 37.0538 53.0363 35.6068 50.0206C37.0534 46.9978 38.646 43.9617 40.3711 40.9597L40.3707 40.9603C42.1003 37.9504 43.9207 35.0479 45.8014 32.2842C49.1323 32.0315 52.5479 31.8997 55.9998 31.8997H56C59.4674 31.8997 62.8874 32.0326 66.2173 32.2874C68.0694 35.0309 69.8773 37.924 71.6138 40.9343C73.3699 43.9785 74.9831 46.9944 76.442 49.9523C74.9875 52.9611 73.3779 56.0074 71.6295 59.0502ZM81.4995 5.43226C85.2501 7.60274 86.7086 16.3563 84.3522 27.8348C84.2019 28.5673 84.0326 29.3133 83.8488 30.0693C79.2021 28.9934 74.1564 28.1928 68.8736 27.6954C65.7961 23.2974 62.6069 19.2992 59.4058 15.8377C60.2665 15.0068 61.1259 14.2146 61.9818 13.467C70.2503 6.24572 77.9785 3.39463 81.4995 5.43226ZM56 39.8688C61.5234 39.8688 66.0012 44.3622 66.0012 49.9053C66.0012 55.4482 61.5234 59.9418 56 59.9418C50.4766 59.9418 45.9988 55.4482 45.9988 49.9053C45.9988 44.3622 50.4766 39.8688 56 39.8688Z" fill="#00D8FF"/>
</svg>
